<?xml version="1.0" encoding="UTF-8" standalone="no"?>
<!-- Created with Inkscape (http://www.inkscape.org/) -->

<svg
   xmlns:dc="http://purl.org/dc/elements/1.1/"
   xmlns:cc="http://creativecommons.org/ns#"
   xmlns:rdf="http://www.w3.org/1999/02/22-rdf-syntax-ns#"
   xmlns:svg="http://www.w3.org/2000/svg"
   xmlns="http://www.w3.org/2000/svg"
   xmlns:xlink="http://www.w3.org/1999/xlink"
   xmlns:sodipodi="http://sodipodi.sourceforge.net/DTD/sodipodi-0.dtd"
   xmlns:inkscape="http://www.inkscape.org/namespaces/inkscape"
   id="svg2985"
   version="1.1"
   inkscape:version="0.48.4 r9939"
   width="990.06433"
   height="613.66492"
   sodipodi:docname="bik_logo_2013_ohne_Text_V3.svg"
   inkscape:export-filename="D:\ohlendorf\Eigene Bilder\logos\bik\neu\bitmap.png"
   inkscape:export-xdpi="150"
   inkscape:export-ydpi="150">
  <metadata
     id="metadata2991">
    <rdf:RDF>
      <cc:Work
         rdf:about="">
        <dc:format>image/svg+xml</dc:format>
        <dc:type
           rdf:resource="http://purl.org/dc/dcmitype/StillImage" />
        <dc:title></dc:title>
      </cc:Work>
    </rdf:RDF>
  </metadata>
  <defs
     id="defs2989">
    <pattern
       inkscape:collect="always"
       xlink:href="#pattern4865"
       id="pattern4870"
       patternTransform="translate(2490.3367,413.32389)" />
    <pattern
       inkscape:collect="always"
       xlink:href="#pattern4823"
       id="pattern4831"
       patternTransform="translate(6175.128,773.27718)" />
    <pattern
       inkscape:collect="always"
       xlink:href="#pattern6377"
       id="pattern6471"
       patternTransform="translate(5864.8464,707.31418)" />
    <pattern
       patternUnits="userSpaceOnUse"
       width="124.4324"
       height="129.9802"
       patternTransform="translate(1756.0903,1000.4229)"
       id="pattern6377">
      <path
         transform="matrix(0.29397925,0,0,0.28581315,-128.55151,-101.10154)"
         d="m 601.84898,579.89124 a 82.284042,84.635017 0 1 1 -164.56808,0 82.284042,84.635017 0 1 1 164.56808,0 z"
         sodipodi:ry="84.635017"
         sodipodi:rx="82.284042"
         sodipodi:cy="579.89124"
         sodipodi:cx="519.56494"
         id="path5393-8-7-7"
         style="fill:#ff0000;fill-opacity:1;fill-rule:nonzero"
         sodipodi:type="arc" />
      <path
         transform="matrix(0.29397925,0,0,0.28581315,-90.551511,-141.55074)"
         d="m 601.84898,579.89124 a 82.284042,84.635017 0 1 1 -164.56808,0 82.284042,84.635017 0 1 1 164.56808,0 z"
         sodipodi:ry="84.635017"
         sodipodi:rx="82.284042"
         sodipodi:cy="579.89124"
         sodipodi:cx="519.56494"
         id="path5393-7-08"
         style="fill:#ff0000;fill-opacity:1;fill-rule:nonzero"
         sodipodi:type="arc" />
      <path
         transform="matrix(0.29397925,0,0,0.28581315,-52.498711,-100.81964)"
         d="m 601.84898,579.89124 a 82.284042,84.635017 0 1 1 -164.56808,0 82.284042,84.635017 0 1 1 164.56808,0 z"
         sodipodi:ry="84.635017"
         sodipodi:rx="82.284042"
         sodipodi:cy="579.89124"
         sodipodi:cx="519.56494"
         id="path5393-8-7-9-9"
         style="fill:#ff0000;fill-opacity:1;fill-rule:nonzero"
         sodipodi:type="arc" />
      <path
         transform="matrix(0.29397925,0,0,0.28581315,-90.952111,-59.95014)"
         d="m 601.84898,579.89124 a 82.284042,84.635017 0 1 1 -164.56808,0 82.284042,84.635017 0 1 1 164.56808,0 z"
         sodipodi:ry="84.635017"
         sodipodi:rx="82.284042"
         sodipodi:cy="579.89124"
         sodipodi:cx="519.56494"
         id="path5393-7-9-3"
         style="fill:#ff0000;fill-opacity:1;fill-rule:nonzero"
         sodipodi:type="arc" />
    </pattern>
    <pattern
       patternUnits="userSpaceOnUse"
       width="76.108588"
       height="41.871888"
       patternTransform="translate(2034.255,1079.1685)"
       id="pattern6461">
      <path
         transform="matrix(0.13770099,0,0,0.13387596,-60.214013,-66.302902)"
         d="m 601.84898,579.89124 a 82.284042,84.635017 0 1 1 -164.56808,0 82.284042,84.635017 0 1 1 164.56808,0 z"
         sodipodi:ry="84.635017"
         sodipodi:rx="82.284042"
         sodipodi:cy="579.89124"
         sodipodi:cx="519.56494"
         id="path5393-6-0-7"
         style="fill:#3a75c4;fill-opacity:1;fill-rule:nonzero"
         sodipodi:type="arc" />
      <path
         transform="matrix(0.13770099,0,0,0.13387596,-42.390013,-47.224302)"
         d="m 601.84898,579.89124 a 82.284042,84.635017 0 1 1 -164.56808,0 82.284042,84.635017 0 1 1 164.56808,0 z"
         sodipodi:ry="84.635017"
         sodipodi:rx="82.284042"
         sodipodi:cy="579.89124"
         sodipodi:cx="519.56494"
         id="path5393-8-7-5-7-1"
         style="fill:#3a75c4;fill-opacity:1;fill-rule:nonzero"
         sodipodi:type="arc" />
      <path
         transform="matrix(0.13770099,0,0,0.13387596,-24.590613,-66.170802)"
         d="m 601.84898,579.89124 a 82.284042,84.635017 0 1 1 -164.56808,0 82.284042,84.635017 0 1 1 164.56808,0 z"
         sodipodi:ry="84.635017"
         sodipodi:rx="82.284042"
         sodipodi:cy="579.89124"
         sodipodi:cx="519.56494"
         id="path5393-7-0-4-9"
         style="fill:#3a75c4;fill-opacity:1;fill-rule:nonzero"
         sodipodi:type="arc" />
      <path
         transform="matrix(0.13770099,0,0,0.13387596,-6.7666127,-47.092202)"
         d="m 601.84898,579.89124 a 82.284042,84.635017 0 1 1 -164.56808,0 82.284042,84.635017 0 1 1 164.56808,0 z"
         sodipodi:ry="84.635017"
         sodipodi:rx="82.284042"
         sodipodi:cy="579.89124"
         sodipodi:cx="519.56494"
         id="path5393-8-7-9-2-7-1"
         style="fill:#3a75c4;fill-opacity:1;fill-rule:nonzero"
         sodipodi:type="arc" />
    </pattern>
    <pattern
       patternUnits="userSpaceOnUse"
       width="76.108588"
       height="41.663328"
       patternTransform="translate(6145.6581,635.83758)"
       id="pattern3813">
      <path
         transform="matrix(0.13770099,0,0,0.13387596,-60.214013,-66.302902)"
         d="m 601.84898,579.89124 a 82.284042,84.635017 0 1 1 -164.56808,0 82.284042,84.635017 0 1 1 164.56808,0 z"
         sodipodi:ry="84.635017"
         sodipodi:rx="82.284042"
         sodipodi:cy="579.89124"
         sodipodi:cx="519.56494"
         id="path5393-6-0-1"
         style="fill:#3a75c4;fill-opacity:1;fill-rule:nonzero"
         sodipodi:type="arc" />
      <path
         transform="matrix(0.13770099,0,0,0.13387596,-42.390013,-47.300762)"
         d="m 601.84898,579.89124 a 82.284042,84.635017 0 1 1 -164.56808,0 82.284042,84.635017 0 1 1 164.56808,0 z"
         sodipodi:ry="84.635017"
         sodipodi:rx="82.284042"
         sodipodi:cy="579.89124"
         sodipodi:cx="519.56494"
         id="path5393-8-7-5-7-7"
         style="fill:#3a75c4;fill-opacity:1;fill-rule:nonzero"
         sodipodi:type="arc" />
      <path
         transform="matrix(0.13770099,0,0,0.13387596,-24.590613,-66.247272)"
         d="m 601.84898,579.89124 a 82.284042,84.635017 0 1 1 -164.56808,0 82.284042,84.635017 0 1 1 164.56808,0 z"
         sodipodi:ry="84.635017"
         sodipodi:rx="82.284042"
         sodipodi:cy="579.89124"
         sodipodi:cx="519.56494"
         id="path5393-7-0-4-4"
         style="fill:#3a75c4;fill-opacity:1;fill-rule:nonzero"
         sodipodi:type="arc" />
      <path
         transform="matrix(0.13770099,0,0,0.13387596,-6.7666127,-47.321642)"
         d="m 601.84898,579.89124 a 82.284042,84.635017 0 1 1 -164.56808,0 82.284042,84.635017 0 1 1 164.56808,0 z"
         sodipodi:ry="84.635017"
         sodipodi:rx="82.284042"
         sodipodi:cy="579.89124"
         sodipodi:cx="519.56494"
         id="path5393-8-7-9-2-7-0"
         style="fill:#3a75c4;fill-opacity:1;fill-rule:nonzero"
         sodipodi:type="arc" />
    </pattern>
    <pattern
       patternUnits="userSpaceOnUse"
       width="76.108688"
       height="41.642448"
       patternTransform="translate(6001.5534,821.42114)"
       id="pattern4568">
      <path
         transform="matrix(0.13770099,0,0,0.13387596,-60.214013,-66.302902)"
         d="m 601.84898,579.89124 a 82.284042,84.635017 0 1 1 -164.56808,0 82.284042,84.635017 0 1 1 164.56808,0 z"
         sodipodi:ry="84.635017"
         sodipodi:rx="82.284042"
         sodipodi:cy="579.89124"
         sodipodi:cx="519.56494"
         id="path5393-6-0-9"
         style="fill:#3a7500;fill-opacity:1;fill-rule:nonzero"
         sodipodi:type="arc" />
      <path
         transform="matrix(0.13770099,0,0,0.13387596,-42.398313,-47.321642)"
         d="m 601.84898,579.89124 a 82.284042,84.635017 0 1 1 -164.56808,0 82.284042,84.635017 0 1 1 164.56808,0 z"
         sodipodi:ry="84.635017"
         sodipodi:rx="82.284042"
         sodipodi:cy="579.89124"
         sodipodi:cx="519.56494"
         id="path5393-8-7-5-7-4"
         style="fill:#3a7500;fill-opacity:1;fill-rule:nonzero"
         sodipodi:type="arc" />
      <path
         transform="matrix(0.13770099,0,0,0.13387596,-24.582413,-66.302902)"
         d="m 601.84898,579.89124 a 82.284042,84.635017 0 1 1 -164.56808,0 82.284042,84.635017 0 1 1 164.56808,0 z"
         sodipodi:ry="84.635017"
         sodipodi:rx="82.284042"
         sodipodi:cy="579.89124"
         sodipodi:cx="519.56494"
         id="path5393-7-0-4-8"
         style="fill:#3a7500;fill-opacity:1;fill-rule:nonzero"
         sodipodi:type="arc" />
      <path
         transform="matrix(0.13770099,0,0,0.13387596,-6.7665127,-47.321642)"
         d="m 601.84898,579.89124 a 82.284042,84.635017 0 1 1 -164.56808,0 82.284042,84.635017 0 1 1 164.56808,0 z"
         sodipodi:ry="84.635017"
         sodipodi:rx="82.284042"
         sodipodi:cy="579.89124"
         sodipodi:cx="519.56494"
         id="path5393-8-7-9-2-7-8"
         style="fill:#3a7500;fill-opacity:1;fill-rule:nonzero"
         sodipodi:type="arc" />
    </pattern>
    <pattern
       patternUnits="userSpaceOnUse"
       width="76.108688"
       height="41.422568"
       patternTransform="translate(6003.7012,800.2031)"
       id="pattern4603">
      <path
         transform="matrix(0.13770099,0,0,0.13387596,-60.214013,-66.302902)"
         d="m 601.84898,579.89124 a 82.284042,84.635017 0 1 1 -164.56808,0 82.284042,84.635017 0 1 1 164.56808,0 z"
         sodipodi:ry="84.635017"
         sodipodi:rx="82.284042"
         sodipodi:cy="579.89124"
         sodipodi:cx="519.56494"
         id="path5393-6-0-2"
         style="fill:#3a7500;fill-opacity:1;fill-rule:nonzero"
         sodipodi:type="arc" />
      <path
         transform="matrix(0.13770099,0,0,0.13387596,-42.398313,-47.541522)"
         d="m 601.84898,579.89124 a 82.284042,84.635017 0 1 1 -164.56808,0 82.284042,84.635017 0 1 1 164.56808,0 z"
         sodipodi:ry="84.635017"
         sodipodi:rx="82.284042"
         sodipodi:cy="579.89124"
         sodipodi:cx="519.56494"
         id="path5393-8-7-5-7-45"
         style="fill:#3a7500;fill-opacity:1;fill-rule:nonzero"
         sodipodi:type="arc" />
      <path
         transform="matrix(0.13770099,0,0,0.13387596,-24.582413,-66.302902)"
         d="m 601.84898,579.89124 a 82.284042,84.635017 0 1 1 -164.56808,0 82.284042,84.635017 0 1 1 164.56808,0 z"
         sodipodi:ry="84.635017"
         sodipodi:rx="82.284042"
         sodipodi:cy="579.89124"
         sodipodi:cx="519.56494"
         id="path5393-7-0-4-5"
         style="fill:#3a7500;fill-opacity:1;fill-rule:nonzero"
         sodipodi:type="arc" />
      <path
         transform="matrix(0.13770099,0,0,0.13387596,-6.7665127,-47.541522)"
         d="m 601.84898,579.89124 a 82.284042,84.635017 0 1 1 -164.56808,0 82.284042,84.635017 0 1 1 164.56808,0 z"
         sodipodi:ry="84.635017"
         sodipodi:rx="82.284042"
         sodipodi:cy="579.89124"
         sodipodi:cx="519.56494"
         id="path5393-8-7-9-2-7-17"
         style="fill:#3a7500;fill-opacity:1;fill-rule:nonzero"
         sodipodi:type="arc" />
    </pattern>
    <pattern
       patternUnits="userSpaceOnUse"
       width="76.108688"
       height="41.422568"
       patternTransform="translate(6094.2493,846.6017)"
       id="pattern4638">
      <path
         transform="matrix(0.13770099,0,0,0.13387596,-60.214013,-66.302902)"
         d="m 601.84898,579.89124 a 82.284042,84.635017 0 1 1 -164.56808,0 82.284042,84.635017 0 1 1 164.56808,0 z"
         sodipodi:ry="84.635017"
         sodipodi:rx="82.284042"
         sodipodi:cy="579.89124"
         sodipodi:cx="519.56494"
         id="path5393-6-0-11"
         style="fill:#a02c2c;fill-opacity:1;fill-rule:nonzero"
         sodipodi:type="arc" />
      <path
         transform="matrix(0.13770099,0,0,0.13387596,-42.398313,-47.541522)"
         d="m 601.84898,579.89124 a 82.284042,84.635017 0 1 1 -164.56808,0 82.284042,84.635017 0 1 1 164.56808,0 z"
         sodipodi:ry="84.635017"
         sodipodi:rx="82.284042"
         sodipodi:cy="579.89124"
         sodipodi:cx="519.56494"
         id="path5393-8-7-5-7-5"
         style="fill:#a02c2c;fill-opacity:1;fill-rule:nonzero"
         sodipodi:type="arc" />
      <path
         transform="matrix(0.13770099,0,0,0.13387596,-24.582413,-66.302902)"
         d="m 601.84898,579.89124 a 82.284042,84.635017 0 1 1 -164.56808,0 82.284042,84.635017 0 1 1 164.56808,0 z"
         sodipodi:ry="84.635017"
         sodipodi:rx="82.284042"
         sodipodi:cy="579.89124"
         sodipodi:cx="519.56494"
         id="path5393-7-0-4-2"
         style="fill:#a02c2c;fill-opacity:1;fill-rule:nonzero"
         sodipodi:type="arc" />
      <path
         transform="matrix(0.13770099,0,0,0.13387596,-6.7665127,-47.541522)"
         d="m 601.84898,579.89124 a 82.284042,84.635017 0 1 1 -164.56808,0 82.284042,84.635017 0 1 1 164.56808,0 z"
         sodipodi:ry="84.635017"
         sodipodi:rx="82.284042"
         sodipodi:cy="579.89124"
         sodipodi:cx="519.56494"
         id="path5393-8-7-9-2-7-7"
         style="fill:#a02c2c;fill-opacity:1;fill-rule:nonzero"
         sodipodi:type="arc" />
    </pattern>
    <pattern
       patternUnits="userSpaceOnUse"
       width="58.292788"
       height="58.661188"
       patternTransform="translate(6162.6028,792.47702)"
       id="pattern4705">
      <path
         transform="matrix(0.13770099,0,0,0.13387596,-60.214013,-66.302902)"
         d="m 601.84898,579.89124 a 82.284042,84.635017 0 1 1 -164.56808,0 82.284042,84.635017 0 1 1 164.56808,0 z"
         sodipodi:ry="84.635017"
         sodipodi:rx="82.284042"
         sodipodi:cy="579.89124"
         sodipodi:cx="519.56494"
         id="path5393-6-0-4"
         style="fill:#aa4400;fill-opacity:1;fill-rule:nonzero"
         sodipodi:type="arc" />
      <path
         transform="matrix(0.13770099,0,0,0.13387596,-42.718113,-48.074272)"
         d="m 601.84898,579.89124 a 82.284042,84.635017 0 1 1 -164.56808,0 82.284042,84.635017 0 1 1 164.56808,0 z"
         sodipodi:ry="84.635017"
         sodipodi:rx="82.284042"
         sodipodi:cy="579.89124"
         sodipodi:cx="519.56494"
         id="path5393-8-7-5-7-2"
         style="fill:#aa4400;fill-opacity:1;fill-rule:nonzero"
         sodipodi:type="arc" />
      <path
         transform="matrix(0.13770099,0,0,0.13387596,-24.582413,-65.770152)"
         d="m 601.84898,579.89124 a 82.284042,84.635017 0 1 1 -164.56808,0 82.284042,84.635017 0 1 1 164.56808,0 z"
         sodipodi:ry="84.635017"
         sodipodi:rx="82.284042"
         sodipodi:cy="579.89124"
         sodipodi:cx="519.56494"
         id="path5393-7-0-4-3"
         style="fill:#aa4400;fill-opacity:1;fill-rule:nonzero"
         sodipodi:type="arc" />
      <path
         transform="matrix(0.13770099,0,0,0.13387596,-60.214013,-30.302902)"
         d="m 601.84898,579.89124 a 82.284042,84.635017 0 1 1 -164.56808,0 82.284042,84.635017 0 1 1 164.56808,0 z"
         sodipodi:ry="84.635017"
         sodipodi:rx="82.284042"
         sodipodi:cy="579.89124"
         sodipodi:cx="519.56494"
         id="path5393-6-0-6-2"
         style="fill:#aa4400;fill-opacity:1;fill-rule:nonzero"
         sodipodi:type="arc" />
      <path
         transform="matrix(0.13770099,0,0,0.13387596,-24.582413,-30.302902)"
         d="m 601.84898,579.89124 a 82.284042,84.635017 0 1 1 -164.56808,0 82.284042,84.635017 0 1 1 164.56808,0 z"
         sodipodi:ry="84.635017"
         sodipodi:rx="82.284042"
         sodipodi:cy="579.89124"
         sodipodi:cx="519.56494"
         id="path5393-7-0-4-1-2"
         style="fill:#aa4400;fill-opacity:1;fill-rule:nonzero"
         sodipodi:type="arc" />
    </pattern>
    <pattern
       patternUnits="userSpaceOnUse"
       width="58.292788"
       height="40.889818"
       patternTransform="translate(6184.8549,798.76095)"
       id="pattern4738">
      <path
         transform="matrix(0.13770099,0,0,0.13387596,-60.214013,-66.302902)"
         d="m 601.84898,579.89124 a 82.284042,84.635017 0 1 1 -164.56808,0 82.284042,84.635017 0 1 1 164.56808,0 z"
         sodipodi:ry="84.635017"
         sodipodi:rx="82.284042"
         sodipodi:cy="579.89124"
         sodipodi:cx="519.56494"
         id="path5393-6-0-16"
         style="fill:#ffcc00;fill-opacity:1;fill-rule:nonzero"
         sodipodi:type="arc" />
      <path
         transform="matrix(0.13770099,0,0,0.13387596,-42.718113,-48.074272)"
         d="m 601.84898,579.89124 a 82.284042,84.635017 0 1 1 -164.56808,0 82.284042,84.635017 0 1 1 164.56808,0 z"
         sodipodi:ry="84.635017"
         sodipodi:rx="82.284042"
         sodipodi:cy="579.89124"
         sodipodi:cx="519.56494"
         id="path5393-8-7-5-7-8"
         style="fill:#ffcc00;fill-opacity:1;fill-rule:nonzero"
         sodipodi:type="arc" />
      <path
         transform="matrix(0.13770099,0,0,0.13387596,-24.582413,-65.770152)"
         d="m 601.84898,579.89124 a 82.284042,84.635017 0 1 1 -164.56808,0 82.284042,84.635017 0 1 1 164.56808,0 z"
         sodipodi:ry="84.635017"
         sodipodi:rx="82.284042"
         sodipodi:cy="579.89124"
         sodipodi:cx="519.56494"
         id="path5393-7-0-4-57"
         style="fill:#ffcc00;fill-opacity:1;fill-rule:nonzero"
         sodipodi:type="arc" />
    </pattern>
    <pattern
       patternUnits="userSpaceOnUse"
       width="58.292788"
       height="40.889818"
       patternTransform="translate(6160.3551,831.27032)"
       id="pattern4771">
      <path
         transform="matrix(0.13770099,0,0,0.13387596,-60.214013,-66.302902)"
         d="m 601.84898,579.89124 a 82.284042,84.635017 0 1 1 -164.56808,0 82.284042,84.635017 0 1 1 164.56808,0 z"
         sodipodi:ry="84.635017"
         sodipodi:rx="82.284042"
         sodipodi:cy="579.89124"
         sodipodi:cx="519.56494"
         id="path5393-6-0-6"
         style="fill:#ffd42a;fill-opacity:1;fill-rule:nonzero"
         sodipodi:type="arc" />
      <path
         transform="matrix(0.13770099,0,0,0.13387596,-42.398313,-48.074272)"
         d="m 601.84898,579.89124 a 82.284042,84.635017 0 1 1 -164.56808,0 82.284042,84.635017 0 1 1 164.56808,0 z"
         sodipodi:ry="84.635017"
         sodipodi:rx="82.284042"
         sodipodi:cy="579.89124"
         sodipodi:cx="519.56494"
         id="path5393-8-7-5-7-18"
         style="fill:#ffd42a;fill-opacity:1;fill-rule:nonzero"
         sodipodi:type="arc" />
      <path
         transform="matrix(0.13770099,0,0,0.13387596,-24.582413,-66.302902)"
         d="m 601.84898,579.89124 a 82.284042,84.635017 0 1 1 -164.56808,0 82.284042,84.635017 0 1 1 164.56808,0 z"
         sodipodi:ry="84.635017"
         sodipodi:rx="82.284042"
         sodipodi:cy="579.89124"
         sodipodi:cx="519.56494"
         id="path5393-7-0-4-92"
         style="fill:#ffd42a;fill-opacity:1;fill-rule:nonzero"
         sodipodi:type="arc" />
    </pattern>
    <pattern
       patternUnits="userSpaceOnUse"
       width="76.476888"
       height="40.889818"
       patternTransform="translate(6170.5968,784.79391)"
       id="pattern4823">
      <path
         transform="matrix(0.13770099,0,0,0.13387596,-60.214013,-66.302902)"
         d="m 601.84898,579.89124 a 82.284042,84.635017 0 1 1 -164.56808,0 82.284042,84.635017 0 1 1 164.56808,0 z"
         sodipodi:ry="84.635017"
         sodipodi:rx="82.284042"
         sodipodi:cy="579.89124"
         sodipodi:cx="519.56494"
         id="path5393-6-0-5"
         style="fill:#ff00ff;fill-opacity:1;fill-rule:nonzero"
         sodipodi:type="arc" />
      <path
         transform="matrix(0.13770099,0,0,0.13387596,-42.275413,-48.074272)"
         d="m 601.84898,579.89124 a 82.284042,84.635017 0 1 1 -164.56808,0 82.284042,84.635017 0 1 1 164.56808,0 z"
         sodipodi:ry="84.635017"
         sodipodi:rx="82.284042"
         sodipodi:cy="579.89124"
         sodipodi:cx="519.56494"
         id="path5393-8-7-5-7-43"
         style="fill:#ff00ff;fill-opacity:1;fill-rule:nonzero"
         sodipodi:type="arc" />
      <path
         transform="matrix(0.13770099,0,0,0.13387596,-24.337013,-66.302902)"
         d="m 601.84898,579.89124 a 82.284042,84.635017 0 1 1 -164.56808,0 82.284042,84.635017 0 1 1 164.56808,0 z"
         sodipodi:ry="84.635017"
         sodipodi:rx="82.284042"
         sodipodi:cy="579.89124"
         sodipodi:cx="519.56494"
         id="path5393-7-0-4-1"
         style="fill:#ff00ff;fill-opacity:1;fill-rule:nonzero"
         sodipodi:type="arc" />
      <path
         transform="matrix(0.13770099,0,0,0.13387596,-6.3983127,-48.074272)"
         d="m 601.84898,579.89124 a 82.284042,84.635017 0 1 1 -164.56808,0 82.284042,84.635017 0 1 1 164.56808,0 z"
         sodipodi:ry="84.635017"
         sodipodi:rx="82.284042"
         sodipodi:cy="579.89124"
         sodipodi:cx="519.56494"
         id="path5393-8-7-5-7-79-2"
         style="fill:#ff00ff;fill-opacity:1;fill-rule:nonzero"
         sodipodi:type="arc" />
    </pattern>
    <pattern
       patternUnits="userSpaceOnUse"
       width="181"
       height="183"
       patternTransform="translate(2566.0606,452.9156)"
       id="pattern4865">
      <path
         inkscape:connector-curvature="0"
         id="path4863"
         d="M 3.75,182.998 0,183 0,178.01905 0,173.0381 2.4052,172.43444 4.8103,171.83079 7.1052,169.38805 9.4,166.94532 9.4,163.5 9.4,160.05468 7.1052,157.61195 4.8103,155.16921 2.4052,154.56556 0,153.9619 0,147.5 0,141.0381 2.4052,140.43444 4.8103,139.83079 7.1052,137.38805 9.4,134.94532 9.4,131.5 9.4,128.05468 7.1052,125.61195 4.8103,123.16921 2.4052,122.56556 0,121.9619 0,115 0,108.0381 2.4052,107.43444 4.8103,106.83079 7.1052,104.38805 9.4,101.94532 9.4,98.5 9.4,95.05468 7.1052,92.61195 4.8103,90.16922 2.4052,89.56556 0,88.9619 0,82 0,75.0381 2.4052,74.43444 4.8103,73.83078 7.1052,71.38805 9.4,68.94532 9.4,65.5 9.4,62.05468 7.1052,59.61195 4.8103,57.16922 2.4052,56.56556 0,55.9619 0,49 0,42.0381 2.4052,41.43444 4.8103,40.83078 7.1052,38.38805 9.4,35.94532 9.4,32.5 9.4,29.05468 7.1052,26.61195 4.8103,24.16922 2.4052,23.56556 0,22.9619 0,16.5 0,10.0381 2.4052,9.43444 4.8103,8.83079 6.7902,6.66539 C 7.8792,5.47443 9.0772,3.4875 9.4525,2.25 L 10.1348,0 l 6.4135,0 6.4136,0 0.6037,2.40517 0.6036,2.40517 2.4427,2.29483 L 29.0547,9.4 32.5,9.4 35.9453,9.4 38.3881,7.10517 40.8308,4.81034 41.4344,2.40517 42.0381,0 49,0 55.9619,0 56.5656,2.40517 57.1692,4.81034 59.6119,7.10517 62.0547,9.4 65.5,9.4 68.9453,9.4 71.3881,7.10517 73.8308,4.81034 74.4344,2.40517 75.0381,0 82,0 l 6.9619,0 0.6037,2.40517 0.6036,2.40517 2.4427,2.29483 2.4428,2.29483 3.4453,0 3.4453,0 2.4428,-2.29483 2.4427,-2.29483 0.6036,-2.40517 L 108.0381,0 115,0 l 6.9619,0 0.6037,2.40517 0.6036,2.40517 2.4427,2.29483 2.4428,2.29483 3.4453,0 3.4453,0 2.4428,-2.29483 2.4427,-2.29483 0.6036,-2.40517 L 141.0381,0 147.5,0 l 6.4619,0 0.6037,2.40517 0.6036,2.40517 2.4427,2.29483 2.4428,2.29483 3.4453,0 3.4453,0 2.4428,-2.29483 2.4427,-2.29483 0.6036,-2.40517 L 173.0381,0 177.019,0 181,0 l 0,3.48095 0,3.48095 -2.4052,0.60366 -2.4051,0.60365 -2.2949,2.44274 -2.2948,2.44273 0,3.44532 0,3.44532 2.2948,2.44273 2.2949,2.44273 2.4051,0.60366 L 181,26.0381 181,33 l 0,6.9619 -2.4052,0.60366 -2.4051,0.60366 -2.2949,2.44273 -2.2948,2.44273 0,3.44532 0,3.44532 2.2948,2.44273 2.2949,2.44273 2.4051,0.60366 2.4052,0.60366 0,6.4619 0,6.4619 -2.4052,0.60366 -2.4051,0.60366 -2.2949,2.44273 -2.2948,2.44273 0,3.44532 0,3.44532 2.2948,2.44273 2.2949,2.44273 2.4051,0.60366 L 181,91.0381 181,98 l 0,6.9619 -2.4052,0.60366 -2.4051,0.60365 -2.2949,2.44274 -2.2948,2.44273 0,3.44532 0,3.44532 2.2948,2.44273 2.2949,2.44274 2.4051,0.60365 2.4052,0.60366 0,6.9619 0,6.9619 -2.4052,0.60366 -2.4051,0.60365 -2.2949,2.44274 -2.2948,2.44273 0,3.44532 0,3.44532 2.2948,2.44273 2.2949,2.44274 2.4051,0.60365 2.4052,0.60366 0,6.9619 0,6.9619 -2.4052,0.60366 -2.4051,0.60365 -2.2366,2.38075 -2.2366,2.38075 -0.1083,3.03236 -0.1082,3.03237 -7.5,0 -7.5,0 -0.1109,-3.08594 -0.111,-3.08593 -2.6118,-2.61179 -2.6117,-2.61178 -3.5546,0 -3.5546,0 -2.6117,2.61178 -2.6118,2.61179 -0.111,3.08593 -0.1109,3.08594 -7.5,0 -7.5,0 -0.1109,-3.08594 -0.111,-3.08593 -2.6118,-2.61179 -2.6118,-2.61178 -3.5545,0 -3.5546,0 -2.6117,2.61178 -2.6118,2.61179 -0.111,3.08593 -0.1109,3.08594 -7.5,0 -7.5,0 -0.1109,-3.08594 -0.111,-3.08593 -2.6118,-2.61179 -2.6118,-2.61178 -3.5545,0 -3.5545,0 -2.6118,2.61178 -2.6118,2.61179 -0.111,3.08593 -0.1109,3.08594 -7,0 -7,0 -0.1109,-3.08594 -0.111,-3.08593 -2.6118,-2.61179 -2.6118,-2.61178 -3.5545,0 -3.5545,0 -2.6118,2.61178 -2.6118,2.61179 -0.111,3.08593 -0.1109,3.08594 -7.5,0 -7.5,0 -0.1109,-3.08594 -0.111,-3.08593 -2.6118,-2.61179 -2.6118,-2.61178 -3.5545,0 -3.5545,0 -2.6118,2.61178 -2.6118,2.61179 -0.111,3.08593 -0.1109,3.08594 -3.75,0.002 z M 34,172.39713 l 2.5,-0.51945 2.45,-2.41143 2.45,-2.41142 0,-3.55455 0,-3.55455 -2.6727,-2.67272 -2.6728,-2.67273 -3.5545,0 -3.5545,0 -2.6728,2.67273 -2.6727,2.67272 0,3.47754 0,3.47753 1.95,2.16777 c 1.0725,1.19227 2.85,2.54582 3.95,3.00789 l 2,0.84012 2.5,-0.51945 z m 33,0 2.5,-0.51945 2.45,-2.41143 2.45,-2.41142 0,-3.55455 0,-3.55455 -2.6727,-2.67272 -2.6728,-2.67273 -3.5545,0 -3.5545,0 -2.6728,2.67273 -2.6727,2.67272 0,3.47754 0,3.47753 1.95,2.16777 c 1.0725,1.19227 2.85,2.54582 3.95,3.00789 l 2,0.84012 2.5,-0.51945 z m 33,0 2.5,-0.51945 2.45,-2.41143 2.45,-2.41142 0,-3.55455 0,-3.55455 -2.6727,-2.67272 -2.6727,-2.67273 -3.5546,0 -3.5545,0 -2.6728,2.67273 -2.6727,2.67272 0,3.47754 0,3.47753 1.95,2.16777 c 1.0725,1.19227 2.85,2.54582 3.95,3.00789 l 2,0.84012 2.5,-0.51945 z m 33,0 2.5,-0.51945 2.45,-2.41143 2.45,-2.41142 0,-3.55455 0,-3.55455 -2.6727,-2.67272 -2.6727,-2.67273 -3.5546,0 -3.5546,0 -2.6727,2.67273 -2.6727,2.67272 0,3.47754 0,3.47753 1.95,2.16777 c 1.0725,1.19227 2.85,2.54582 3.95,3.00789 l 2,0.84012 2.5,-0.51945 z m 32,0 2.5,-0.51945 2.45,-2.41143 2.45,-2.41142 0,-3.55455 0,-3.55455 -2.6727,-2.67272 -2.6727,-2.67273 -3.5546,0 -3.5546,0 -2.6727,2.67273 -2.6727,2.67272 0,3.47754 0,3.47753 1.95,2.16777 c 1.0725,1.19227 2.85,2.54582 3.95,3.00789 l 2,0.84012 2.5,-0.51945 z m -147,-16 2.5,-0.51945 2.45,-2.41143 2.45,-2.41142 0,-3.55455 0,-3.55455 -2.6727,-2.67272 -2.6728,-2.67273 -3.5545,0 -3.5545,0 -2.6728,2.67273 -2.6727,2.67272 0,3.47754 0,3.47753 1.95,2.16777 c 1.0725,1.19227 2.85,2.54582 3.95,3.00789 l 2,0.84012 2.5,-0.51945 z m 33,0 2.5,-0.51945 2.45,-2.41143 2.45,-2.41142 0,-3.55455 0,-3.55455 -2.6727,-2.67272 -2.6728,-2.67273 -3.5545,0 -3.5545,0 -2.6728,2.67273 -2.6727,2.67272 0,3.47754 0,3.47753 1.95,2.16777 c 1.0725,1.19227 2.85,2.54582 3.95,3.00789 l 2,0.84012 2.5,-0.51945 z m 32,0 2.5,-0.51945 2.45,-2.41143 2.45,-2.41142 0,-3.55455 0,-3.55455 -2.6727,-2.67272 -2.6728,-2.67273 -3.5545,0 -3.5545,0 -2.6728,2.67273 -2.6727,2.67272 0,3.47754 0,3.47753 1.95,2.16777 c 1.0725,1.19227 2.85,2.54582 3.95,3.00789 l 2,0.84012 2.5,-0.51945 z m 33,0 2.5,-0.51945 2.45,-2.41143 2.45,-2.41142 0,-3.55455 0,-3.55455 -2.6727,-2.67272 -2.6727,-2.67273 -3.5546,0 -3.5546,0 -2.6727,2.67273 -2.6727,2.67272 0,3.47754 0,3.47753 1.95,2.16777 c 1.0725,1.19227 2.85,2.54582 3.95,3.00789 l 2,0.84012 2.5,-0.51945 z m 33,0 2.5,-0.51945 2.45,-2.41143 2.45,-2.41142 0,-3.55455 0,-3.55455 -2.6727,-2.67272 -2.6727,-2.67273 -3.5546,0 -3.5546,0 -2.6727,2.67273 -2.6727,2.67272 0,3.47754 0,3.47753 1.95,2.16777 c 1.0725,1.19227 2.85,2.54582 3.95,3.00789 l 2,0.84012 2.5,-0.51945 z m -115,-16 2.5,-0.51945 2.45,-2.41143 2.45,-2.41142 0,-3.55455 0,-3.55455 -2.6727,-2.67272 -2.6728,-2.67273 -3.5545,0 -3.5545,0 -2.6728,2.67273 -2.6727,2.67272 0,3.47754 0,3.47753 1.95,2.16777 c 1.0725,1.19227 2.85,2.54582 3.95,3.00789 l 2,0.84012 2.5,-0.51945 z m 33,0 2.5,-0.51945 2.45,-2.41143 2.45,-2.41142 0,-3.55455 0,-3.55455 -2.6727,-2.67272 -2.6728,-2.67273 -3.5545,0 -3.5545,0 -2.6728,2.67273 -2.6727,2.67272 0,3.47754 0,3.47753 1.95,2.16777 c 1.0725,1.19227 2.85,2.54582 3.95,3.00789 l 2,0.84012 2.5,-0.51945 z m 33,0 2.5,-0.51945 2.45,-2.41143 2.45,-2.41142 0,-3.55455 0,-3.55455 -2.6727,-2.67272 -2.6727,-2.67273 -3.5546,0 -3.5545,0 -2.6728,2.67273 -2.6727,2.67272 0,3.47754 0,3.47753 1.95,2.16777 c 1.0725,1.19227 2.85,2.54582 3.95,3.00789 l 2,0.84012 2.5,-0.51945 z m 33,0 2.5,-0.51945 2.45,-2.41143 2.45,-2.41142 0,-3.55455 0,-3.55455 -2.6727,-2.67272 -2.6727,-2.67273 -3.5546,0 -3.5546,0 -2.6727,2.67273 -2.6727,2.67272 0,3.47754 0,3.47753 1.95,2.16777 c 1.0725,1.19227 2.85,2.54582 3.95,3.00789 l 2,0.84012 2.5,-0.51945 z m 32,0 2.5,-0.51945 2.45,-2.41143 2.45,-2.41142 0,-3.55455 0,-3.55455 -2.6727,-2.67272 -2.6727,-2.67273 -3.5546,0 -3.5546,0 -2.6727,2.67273 -2.6727,2.67272 0,3.47754 0,3.47753 1.95,2.16777 c 1.0725,1.19227 2.85,2.54582 3.95,3.00789 l 2,0.84012 2.5,-0.51945 z m -147,-17 2.5,-0.51945 2.45,-2.41143 2.45,-2.41142 0,-3.55455 0,-3.55455 -2.6727,-2.67272 -2.6728,-2.67273 -3.5545,0 -3.5545,0 -2.6728,2.67273 -2.6727,2.67272 0,3.47754 0,3.47753 1.95,2.16777 c 1.0725,1.19227 2.85,2.54582 3.95,3.00789 l 2,0.84012 2.5,-0.51945 z m 33,0 2.5,-0.51945 2.45,-2.41143 2.45,-2.41142 0,-3.55455 0,-3.55455 -2.6727,-2.67272 -2.6728,-2.67273 -3.5545,0 -3.5545,0 -2.6728,2.67273 -2.6727,2.67272 0,3.47754 0,3.47753 1.95,2.16777 c 1.0725,1.19227 2.85,2.54582 3.95,3.00789 l 2,0.84012 2.5,-0.51945 z m 32,0 2.5,-0.51945 2.45,-2.41143 2.45,-2.41142 0,-3.55455 0,-3.55455 -2.6727,-2.67272 -2.6728,-2.67273 -3.5545,0 -3.5545,0 -2.6728,2.67273 -2.6727,2.67272 0,3.47754 0,3.47753 1.95,2.16777 c 1.0725,1.19227 2.85,2.54582 3.95,3.00789 l 2,0.84012 2.5,-0.51945 z m 33,0 2.5,-0.51945 2.45,-2.41143 2.45,-2.41142 0,-3.55455 0,-3.55455 -2.6727,-2.67272 -2.6727,-2.67273 -3.5546,0 -3.5546,0 -2.6727,2.67273 -2.6727,2.67272 0,3.47754 0,3.47753 1.95,2.16777 c 1.0725,1.19227 2.85,2.54582 3.95,3.00789 l 2,0.84012 2.5,-0.51945 z m 33,0 2.5,-0.51945 2.45,-2.41143 2.45,-2.41142 0,-3.55455 0,-3.55455 -2.6727,-2.67272 -2.6727,-2.67273 -3.5546,0 -3.5546,0 -2.6727,2.67273 -2.6727,2.67272 0,3.47754 0,3.47753 1.95,2.16777 c 1.0725,1.19227 2.85,2.54582 3.95,3.00789 l 2,0.84012 2.5,-0.51945 z m -115,-16 2.5,-0.51945 2.45,-2.41143 2.45,-2.41142 0,-3.55455 0,-3.55455 -2.6727,-2.67272 -2.6728,-2.67273 -3.5545,0 -3.5545,0 -2.6728,2.67273 -2.6727,2.67273 0,3.47753 0,3.47753 1.95,2.16777 c 1.0725,1.19227 2.85,2.54582 3.95,3.00789 l 2,0.84012 2.5,-0.51945 z m 33,0 2.5,-0.51945 2.45,-2.41143 2.45,-2.41142 0,-3.55455 0,-3.55455 -2.6727,-2.67272 -2.6728,-2.67273 -3.5545,0 -3.5545,0 -2.6728,2.67273 -2.6727,2.67273 0,3.47753 0,3.47753 1.95,2.16777 c 1.0725,1.19227 2.85,2.54582 3.95,3.00789 l 2,0.84012 2.5,-0.51945 z m 33,0 2.5,-0.51945 2.45,-2.41143 2.45,-2.41142 0,-3.55455 0,-3.55455 -2.6727,-2.67272 -2.6727,-2.67273 -3.5546,0 -3.5545,0 -2.6728,2.67273 -2.6727,2.67273 0,3.47753 0,3.47753 1.95,2.16777 c 1.0725,1.19227 2.85,2.54582 3.95,3.00789 l 2,0.84012 2.5,-0.51945 z m 33,0 2.5,-0.51945 2.45,-2.41143 2.45,-2.41142 0,-3.55455 0,-3.55455 -2.6727,-2.67272 -2.6727,-2.67273 -3.5546,0 -3.5546,0 -2.6727,2.67273 -2.6727,2.67272 0,3.47754 0,3.47753 1.95,2.16777 c 1.0725,1.19227 2.85,2.54582 3.95,3.00789 l 2,0.84012 2.5,-0.51945 z m 32,0 2.5,-0.51945 2.45,-2.41143 2.45,-2.41142 0,-3.55455 0,-3.55455 -2.6727,-2.67272 -2.6727,-2.67273 -3.5546,0 -3.5546,0 -2.6727,2.67273 -2.6727,2.67272 0,3.47754 0,3.47753 1.95,2.16777 c 1.0725,1.19227 2.85,2.54582 3.95,3.00789 l 2,0.84012 2.5,-0.51945 z m -147,-17 2.5,-0.51945 2.45,-2.41143 2.45,-2.41143 0,-3.55454 0,-3.55454 -2.6727,-2.67273 -2.6728,-2.67273 -3.5545,0 -3.5545,0 -2.6728,2.67273 -2.6727,2.67273 0,3.47753 0,3.47753 1.95,2.16777 c 1.0725,1.19227 2.85,2.54582 3.95,3.00789 l 2,0.84011 2.5,-0.51944 z m 33,0 2.5,-0.51945 2.45,-2.41143 2.45,-2.41143 0,-3.55454 0,-3.55454 -2.6727,-2.67273 -2.6728,-2.67273 -3.5545,0 -3.5545,0 -2.6728,2.67273 -2.6727,2.67273 0,3.47753 0,3.47753 1.95,2.16777 c 1.0725,1.19227 2.85,2.54582 3.95,3.00789 l 2,0.84011 2.5,-0.51944 z m 32,0 2.5,-0.51945 2.45,-2.41143 2.45,-2.41143 0,-3.55454 0,-3.55454 -2.6727,-2.67273 -2.6728,-2.67273 -3.5545,0 -3.5545,0 -2.6728,2.67273 -2.6727,2.67273 0,3.47753 0,3.47753 1.95,2.16777 c 1.0725,1.19227 2.85,2.54582 3.95,3.00789 l 2,0.84011 2.5,-0.51944 z m 33,0 2.5,-0.51945 2.45,-2.41143 2.45,-2.41143 0,-3.55454 0,-3.55454 -2.6727,-2.67273 -2.6727,-2.67273 -3.5546,0 -3.5546,0 -2.6727,2.67273 -2.6727,2.67273 0,3.47753 0,3.47753 1.95,2.16777 c 1.0725,1.19227 2.85,2.54582 3.95,3.00789 l 2,0.84011 2.5,-0.51944 z m 33,0 2.5,-0.51945 2.45,-2.41143 2.45,-2.41143 0,-3.55454 0,-3.55454 -2.6727,-2.67273 -2.6727,-2.67273 -3.5546,0 -3.5546,0 -2.6727,2.67273 -2.6727,2.67273 0,3.47753 0,3.47753 1.95,2.16777 c 1.0725,1.19227 2.85,2.54582 3.95,3.00789 l 2,0.84011 2.5,-0.51944 z m -115,-16 2.5,-0.51945 2.45,-2.41143 2.45,-2.41143 0,-3.55454 0,-3.55455 -2.6727,-2.67272 -2.6728,-2.67273 -3.5545,0 -3.5545,0 -2.6728,2.67273 -2.6727,2.67272 0,3.47754 0,3.47753 1.95,2.16777 c 1.0725,1.19227 2.85,2.54582 3.95,3.00789 l 2,0.84011 2.5,-0.51944 z m 33,0 2.5,-0.51945 2.45,-2.41143 2.45,-2.41143 0,-3.55454 0,-3.55455 -2.6727,-2.67272 -2.6728,-2.67273 -3.5545,0 -3.5545,0 -2.6728,2.67273 -2.6727,2.67272 0,3.47754 0,3.47753 1.95,2.16777 c 1.0725,1.19227 2.85,2.54582 3.95,3.00789 l 2,0.84011 2.5,-0.51944 z m 33,0 2.5,-0.51945 2.45,-2.41143 2.45,-2.41143 0,-3.55454 0,-3.55455 -2.6727,-2.67272 -2.6727,-2.67273 -3.5546,0 -3.5545,0 -2.6728,2.67273 -2.6727,2.67272 0,3.47754 0,3.47753 1.95,2.16777 c 1.0725,1.19227 2.85,2.54582 3.95,3.00789 l 2,0.84011 2.5,-0.51944 z m 33,0 2.5,-0.51945 2.45,-2.41143 2.45,-2.41143 0,-3.55454 0,-3.55455 -2.6727,-2.67272 -2.6727,-2.67273 -3.5546,0 -3.5546,0 -2.6727,2.67273 -2.6727,2.67272 0,3.47754 0,3.47753 1.95,2.16777 c 1.0725,1.19227 2.85,2.54582 3.95,3.00789 l 2,0.84011 2.5,-0.51944 z m 32,0 2.5,-0.51945 2.45,-2.41143 2.45,-2.41143 0,-3.55454 0,-3.55455 -2.6727,-2.67272 -2.6727,-2.67273 -3.5546,0 -3.5546,0 -2.6727,2.67273 -2.6727,2.67272 0,3.47754 0,3.47753 1.95,2.16777 c 1.0725,1.19227 2.85,2.54582 3.95,3.00789 l 2,0.84011 2.5,-0.51944 z m -147,-16 2.5,-0.51945 2.45,-2.41142 2.45,-2.41143 0,-3.55455 0,-3.55455 -2.6727,-2.67272 -2.6728,-2.67273 -3.5545,0 -3.5545,0 -2.6728,2.67273 -2.6727,2.67272 0,3.47754 0,3.47753 1.95,2.16777 c 1.0725,1.19227 2.85,2.54582 3.95,3.00789 l 2,0.84011 2.5,-0.51944 z m 33,0 2.5,-0.51945 2.45,-2.41142 2.45,-2.41143 0,-3.55455 0,-3.55455 -2.6727,-2.67272 -2.6728,-2.67273 -3.5545,0 -3.5545,0 -2.6728,2.67273 -2.6727,2.67272 0,3.47754 0,3.47753 1.95,2.16777 c 1.0725,1.19227 2.85,2.54582 3.95,3.00789 l 2,0.84011 2.5,-0.51944 z m 32,0 2.5,-0.51945 2.45,-2.41142 2.45,-2.41143 0,-3.55455 0,-3.55455 -2.6727,-2.67272 -2.6728,-2.67273 -3.5545,0 -3.5545,0 -2.6728,2.67273 -2.6727,2.67272 0,3.47754 0,3.47753 1.95,2.16777 c 1.0725,1.19227 2.85,2.54582 3.95,3.00789 l 2,0.84011 2.5,-0.51944 z m 33,0 2.5,-0.51945 2.45,-2.41142 2.45,-2.41143 0,-3.55455 0,-3.55455 -2.6727,-2.67272 -2.6727,-2.67273 -3.5546,0 -3.5546,0 -2.6727,2.67273 -2.6727,2.67272 0,3.47754 0,3.47753 1.95,2.16777 c 1.0725,1.19227 2.85,2.54582 3.95,3.00789 l 2,0.84011 2.5,-0.51944 z m 33,0 2.5,-0.51945 2.45,-2.41142 2.45,-2.41143 0,-3.55455 0,-3.55455 -2.6727,-2.67272 -2.6727,-2.67273 -3.5546,0 -3.5546,0 -2.6727,2.67273 -2.6727,2.67272 0,3.47754 0,3.47753 1.95,2.16777 c 1.0725,1.19227 2.85,2.54582 3.95,3.00789 l 2,0.84011 2.5,-0.51944 z m -115,-17 2.5,-0.51945 2.45,-2.41142 2.45,-2.41143 0,-3.55455 0,-3.55455 -2.6727,-2.67272 -2.6728,-2.67273 -3.5545,0 -3.5545,0 -2.6728,2.67273 -2.6727,2.67272 0,3.47754 0,3.47753 1.95,2.16777 c 1.0725,1.19227 2.85,2.54582 3.95,3.00789 l 2,0.84011 2.5,-0.51944 z m 33,0 2.5,-0.51945 2.45,-2.41142 2.45,-2.41143 0,-3.55455 0,-3.55455 -2.6727,-2.67272 -2.6728,-2.67273 -3.5545,0 -3.5545,0 -2.6728,2.67273 -2.6727,2.67272 0,3.47754 0,3.47753 1.95,2.16777 c 1.0725,1.19227 2.85,2.54582 3.95,3.00789 l 2,0.84011 2.5,-0.51944 z m 33,0 2.5,-0.51945 2.45,-2.41142 2.45,-2.41143 0,-3.55455 0,-3.55455 -2.6727,-2.67272 -2.6727,-2.67273 -3.5546,0 -3.5545,0 -2.6728,2.67273 -2.6727,2.67272 0,3.47754 0,3.47753 1.95,2.16777 c 1.0725,1.19227 2.85,2.54582 3.95,3.00789 l 2,0.84011 2.5,-0.51944 z m 33,0 2.5,-0.51945 2.45,-2.41142 2.45,-2.41143 0,-3.55455 0,-3.55455 -2.6727,-2.67272 -2.6727,-2.67273 -3.5546,0 -3.5546,0 -2.6727,2.67273 -2.6727,2.67272 0,3.47754 0,3.47753 1.95,2.16777 c 1.0725,1.19227 2.85,2.54582 3.95,3.00789 l 2,0.84011 2.5,-0.51944 z m 32,0 2.5,-0.51945 2.45,-2.41142 2.45,-2.41143 0,-3.55455 0,-3.55455 -2.6727,-2.67272 -2.6727,-2.67273 -3.5546,0 -3.5546,0 -2.6727,2.67273 -2.6727,2.67272 0,3.47754 0,3.47753 1.95,2.16777 c 1.0725,1.19227 2.85,2.54582 3.95,3.00789 l 2,0.84011 2.5,-0.51944 z m -147,-16 2.5,-0.51945 2.45,-2.41142 2.45,-2.41143 0,-3.55455 0,-3.55455 -2.6727,-2.67272 -2.6728,-2.67273 -3.5545,0 -3.5545,0 -2.6728,2.67273 -2.6727,2.67272 0,3.47754 0,3.47753 1.95,2.16777 c 1.0725,1.19227 2.85,2.54582 3.95,3.00789 l 2,0.84011 2.5,-0.51944 z m 33,0 2.5,-0.51945 2.45,-2.41142 2.45,-2.41143 0,-3.55455 0,-3.55455 -2.6727,-2.67272 -2.6728,-2.67273 -3.5545,0 -3.5545,0 -2.6728,2.67273 -2.6727,2.67272 0,3.47754 0,3.47753 1.95,2.16777 c 1.0725,1.19227 2.85,2.54582 3.95,3.00789 l 2,0.84011 2.5,-0.51944 z m 32,0 2.5,-0.51945 2.45,-2.41142 2.45,-2.41143 0,-3.55455 0,-3.55455 -2.6727,-2.67272 -2.6728,-2.67273 -3.5545,0 -3.5545,0 -2.6728,2.67273 -2.6727,2.67272 0,3.47754 0,3.47753 1.95,2.16777 c 1.0725,1.19227 2.85,2.54582 3.95,3.00789 l 2,0.84011 2.5,-0.51944 z m 33,0 2.5,-0.51945 2.45,-2.41142 2.45,-2.41143 0,-3.55455 0,-3.55455 -2.6727,-2.67272 -2.6727,-2.67273 -3.5546,0 -3.5546,0 -2.6727,2.67273 -2.6727,2.67272 0,3.47754 0,3.47753 1.95,2.16777 c 1.0725,1.19227 2.85,2.54582 3.95,3.00789 l 2,0.84011 2.5,-0.51944 z m 33,0 2.5,-0.51945 2.45,-2.41142 2.45,-2.41143 0,-3.55455 0,-3.55455 -2.6727,-2.67272 -2.6727,-2.67273 -3.5546,0 -3.5546,0 -2.6727,2.67273 -2.6727,2.67272 0,3.47754 0,3.47753 1.95,2.16777 c 1.0725,1.19227 2.85,2.54582 3.95,3.00789 l 2,0.84011 2.5,-0.51944 z"
         style="fill:#3a75c4;fill-opacity:1" />
    </pattern>
    <filter
       id="filter4885"
       inkscape:label="Invert"
       x="0"
       y="0"
       width="1"
       height="1"
       inkscape:menu="Color"
       inkscape:menu-tooltip="Invert colors"
       color-interpolation-filters="sRGB">
      <feColorMatrix
         id="feColorMatrix4887"
         type="saturate"
         values="1"
         result="fbSourceGraphic" />
      <feColorMatrix
         id="feColorMatrix4889"
         in="fbSourceGraphic"
         values="-1 0 0 0 1 0 -1 0 0 1 0 0 -1 0 1 0 0 0 1 0 " />
    </filter>
    <filter
       id="filter4885-3"
       inkscape:label="Invert"
       x="0"
       y="0"
       width="1"
       height="1"
       inkscape:menu="Color"
       inkscape:menu-tooltip="Invert colors"
       color-interpolation-filters="sRGB">
      <feColorMatrix
         id="feColorMatrix4887-3"
         type="saturate"
         values="1"
         result="fbSourceGraphic" />
      <feColorMatrix
         id="feColorMatrix4889-4"
         in="fbSourceGraphic"
         values="-1 0 0 0 1 0 -1 0 0 1 0 0 -1 0 1 0 0 0 1 0 " />
    </filter>
    <filter
       id="filter4885-3-1"
       inkscape:label="Invert"
       x="0"
       y="0"
       width="1"
       height="1"
       inkscape:menu="Color"
       inkscape:menu-tooltip="Invert colors"
       color-interpolation-filters="sRGB">
      <feColorMatrix
         id="feColorMatrix4887-3-3"
         type="saturate"
         values="1"
         result="fbSourceGraphic" />
      <feColorMatrix
         id="feColorMatrix4889-4-8"
         in="fbSourceGraphic"
         values="-1 0 0 0 1 0 -1 0 0 1 0 0 -1 0 1 0 0 0 1 0 " />
    </filter>
    <pattern
       patternUnits="userSpaceOnUse"
       width="66.8"
       height="34.31629"
       patternTransform="translate(1957.5643,522.93958)"
       id="pattern4945">
      <path
         sodipodi:nodetypes="cccccccccssccccccccccccccccssccccccccccccccccssccccccccccccccccssccccccc"
         inkscape:connector-curvature="0"
         id="path4883-1-7"
         d="m 26.4,33.79685 2.5,-0.51945 2.45,-2.41142 2.45,-2.41143 0,-3.55455 0,-3.55455 L 31.1273,18.67273 28.4545,16 24.9,16 21.3455,16 18.6727,18.67273 16,21.34545 l 0,3.47754 0,3.47753 1.95,2.16777 c 1.0725,1.19227 2.85,2.54582 3.95,3.00789 l 2,0.84011 z m 33,0 2.5,-0.51945 2.45,-2.41142 2.45,-2.41143 0,-3.55455 0,-3.55455 L 64.1273,18.67273 61.4546,16 57.9,16 54.3455,16 51.6727,18.67273 49,21.34545 l 0,3.47754 0,3.47753 1.95,2.16777 c 1.0725,1.19227 2.85,2.54582 3.95,3.00789 l 2,0.84011 z m -49,-16 2.5,-0.51945 2.45,-2.41142 L 17.8,12.45455 17.8,8.9 17.8,5.34545 15.1273,2.67273 12.4545,0 8.9,0 5.3455,0 2.6727,2.67273 0,5.34545 l 0,3.47754 0,3.47753 1.95,2.16777 c 1.0725,1.19227 2.85,2.54582 3.95,3.00789 l 2,0.84011 z m 32,0 2.5,-0.51945 2.45,-2.41142 L 49.8,12.45455 49.8,8.9 49.8,5.34545 47.1273,2.67273 44.4545,0 40.9,0 37.3455,0 34.6727,2.67273 32,5.34545 l 0,3.47754 0,3.47753 1.95,2.16777 c 1.0725,1.19227 2.85,2.54582 3.95,3.00789 l 2,0.84011 z"
         style="fill:#24b51c;fill-opacity:1;filter:url(#filter4885-3-1)" />
    </pattern>
    <pattern
       patternUnits="userSpaceOnUse"
       width="444.0364"
       height="252.9196"
       patternTransform="translate(3929.8003,111.81658)"
       id="pattern5008">
      <path
         sodipodi:nodetypes="cscccssscccscccccsscccccccccscccccccccccccccccccccccccccccccccccccccccccccccccccccccccccccccccccccccccsscccccccccsssccccccccccsssscccccccccsscscccccccccccscsscccccccccccsscscccccccccccscsscccccccccccsscccccccccccccccccccccccccccccccccccccccccccccccccccccccccccccccccccccccccccccccccccccccccccccccccccccccccccccccccssscccccccccccccccccccccccccssscccccccccccccccccccssccccccccccccccccccccccccccssccccccccccscccssscccscccccsscccccccccccccccccccccccccccccccccccccccccccccccccccccccccccccccccccccccccccccccccccsscccccccccsssscccccccccsssscccccccccsscscccccccccccscsccccccccccccsscscccccccccccscsccccccccccccsscccccccccccccccccccccccccccccccccccccccccccccccccccccccccccccccccccccccccccccccccccccccccccccccccccccccccccccccccssscccccccccccccccccccccccccssscccccccccccccccccccssccccccccccccccccccccccccccssccccccccc"
         inkscape:connector-curvature="0"
         id="path5006"
         d="m 14.3553,252.83316 c -2.4233,-0.0475 -6.6446,-1.39029 -9.3807,-2.98389 L 0,246.95183 l 0,-6.7623 0,-6.7623 4.467,-4.467 c 2.4569,-2.45685 5.7389,-4.467 7.2935,-4.467 1.5545,0 5.3007,1.32419 8.3248,2.94265 l 5.4985,2.94265 0,7.85937 0,7.85937 -3.4112,3.41117 c -1.8762,1.87614 -5.3939,3.37226 -7.8173,3.32472 z m 62.2584,0.0864 -5.4167,0 -4.394,-6.70605 -4.3939,-6.70605 1.8202,-4.74347 c 1.0011,-2.6089 4.3139,-6.07803 7.3617,-7.70916 l 5.5415,-2.96571 6.9159,4.53152 6.916,4.53152 0,5.4167 0,5.4167 -4.467,4.467 -4.467,4.467 z m 66.1633,-0.0864 c -2.7,-0.0475 -7.1476,-1.39029 -9.8837,-2.98389 l -4.9746,-2.89744 0,-6.52477 0,-6.52477 5.4816,-4.96075 5.4815,-4.96074 5.892,1.87005 5.892,1.87005 3.0417,5.68338 3.0416,5.68338 -4.5315,6.91597 -4.5315,6.91597 -4.9091,-0.0864 z m 61.7554,0.0864 -5.4167,0 -4.5315,-6.91597 -4.5315,-6.91597 3.0416,-5.68338 3.0417,-5.68338 5.892,-1.87005 5.892,-1.87005 5.4815,4.96074 5.4816,4.96075 0,5.04165 0,5.04166 -4.467,4.467 -4.467,4.467 z m 65.6557,0 -5.4167,0 -4.467,-4.467 -4.467,-4.467 0,-5.04166 0,-5.04165 5.4816,-4.96075 5.4815,-4.96074 5.892,1.87005 5.892,1.87005 3.0417,5.68338 3.0416,5.68338 -4.5315,6.91597 -4.5315,6.91597 z m 62.263,0 -5.4167,0 -4.5315,-6.91597 -4.5315,-6.91597 3.0416,-5.68338 3.0417,-5.68338 5.892,-1.87005 5.892,-1.87005 5.4815,4.96074 5.4816,4.96075 0,5.04165 0,5.04166 -4.467,4.467 -4.467,4.467 z m 65.6557,0 -5.4167,0 -4.467,-4.467 -4.467,-4.467 0,-5.04166 0,-5.04165 5.4815,-4.96075 5.4816,-4.96074 5.892,1.87005 5.892,1.87005 3.0417,5.68338 3.0416,5.68338 -4.5315,6.91597 -4.5315,6.91597 z M 45.7971,221.65055 c -1.3902,0 -5.4206,-2.34255 -8.9564,-5.20567 l -6.4288,-5.20567 1.8932,-7.5429 1.8931,-7.54291 7.1779,-1.80153 7.1778,-1.80152 5.5708,5.04144 5.5707,5.04145 0,3.82338 0,3.82338 -5.6853,5.68528 c -3.1269,3.1269 -6.8227,5.68527 -8.213,5.68527 z m 62.9533,0 c -1.3674,0 -4.7592,-1.66206 -7.5373,-3.69348 l -5.0512,-3.69347 0.9546,-8.10102 0.9545,-8.10102 4.7539,-2.97556 4.7538,-2.97556 7.3274,3.33856 7.3273,3.33857 0,8.48884 0,8.48884 -5.4984,2.94265 c -3.0241,1.61846 -6.6172,2.94265 -7.9846,2.94265 z m 64.9654,0 c -1.3902,0 -5.4206,-2.34255 -8.9564,-5.20567 l -6.4288,-5.20567 1.8932,-7.5429 1.8931,-7.54291 7.1779,-1.80153 7.1778,-1.80152 5.5707,5.04144 5.5708,5.04145 0,3.82338 0,3.82338 -5.6853,5.68528 c -3.1269,3.1269 -6.8227,5.68527 -8.213,5.68527 z m 63.1207,-0.0864 c -1.2754,-0.0475 -4.5575,-1.39029 -7.2935,-2.98389 l -4.9746,-2.89744 0,-7.81814 0,-7.81813 3.4111,-3.41117 3.4112,-3.41116 5.9695,0 5.9696,0 3.4111,3.41116 3.4112,3.41117 0,7.85937 0,7.85937 -5.4984,2.94265 c -3.0241,1.61846 -6.5419,2.90375 -7.8172,2.85621 z m 64.4831,0.0864 c -0.8677,0 -4.4207,-1.99131 -7.8954,-4.42514 l -6.3178,-4.42515 0,-5.08351 0,-5.08351 5.1984,-4.70453 5.1985,-4.70453 4.3102,0 4.3102,0 4.7045,5.19844 4.7046,5.19845 0,4.5896 0,4.58959 -6.3178,4.42515 c -3.4748,2.43383 -7.0277,4.42514 -7.8954,4.42514 z m 63.4355,-0.0864 c -1.2753,-0.0475 -4.5574,-1.39029 -7.2934,-2.98389 l -4.9746,-2.89744 0,-7.81814 0,-7.81813 3.4111,-3.41117 3.4112,-3.41116 5.9695,0 5.9696,0 3.4111,3.41116 3.4112,3.41117 0,7.85937 0,7.85937 -5.4984,2.94265 c -3.0241,1.61846 -6.5419,2.90375 -7.8173,2.85621 z m 64.4832,0.0864 c -0.8677,0 -4.4207,-1.99131 -7.8954,-4.42514 l -6.3178,-4.42515 0,-5.08351 0,-5.08351 5.1984,-4.70453 5.1985,-4.70453 4.3102,0 4.3102,0 4.7045,5.19844 4.7046,5.19845 0,4.5896 0,4.58959 -6.3178,4.42515 c -3.4748,2.43383 -7.0277,4.42514 -7.8954,4.42514 z M 15.6205,186.95639 7.0786,187.79519 3.5393,184.25588 0,180.71657 l 0,-5.96954 0,-5.96953 3.4112,-3.41117 3.4111,-3.41116 6.1901,0 6.1899,0 3.3961,4.09205 3.3962,4.09206 -0.9161,7.98915 -0.9161,7.98915 z m 60.8827,0.58251 -8.0799,0 -3.1001,-5.79265 -3.1001,-5.79264 1.7682,-5.5713 1.7683,-5.57129 7.3571,-1.84652 7.3571,-1.84652 4.5347,2.84088 4.5346,2.84089 0.9289,6.26208 0.9288,6.26209 -3.4089,4.10749 -3.4089,4.10749 z m 66.2888,0 -8.051,0 -3.4111,-3.41116 -3.4112,-3.41117 0,-6.19 0,-6.19 4.1075,-3.40891 4.1075,-3.40892 6.2266,0.92887 6.2266,0.92887 3.6087,5.68528 3.6087,5.68527 -2.4807,6.39594 -2.4806,6.39593 z m 61.4094,0 -7.8594,0 -3.1447,-5.87589 -3.1446,-5.8759 4.5315,-6.91597 4.5315,-6.91597 6.4725,0 6.4726,0 3.4111,3.41116 3.4112,3.41117 0,5.96953 0,5.96954 -3.4112,3.41117 -3.4111,3.41116 z m 66.3177,0 -7.8594,0 -3.4111,-3.41116 -3.4112,-3.41117 0,-5.96954 0,-5.96953 3.4112,-3.41117 3.4111,-3.41116 6.4726,0 6.4725,0 4.5315,6.91597 4.5315,6.91597 -3.1447,5.8759 -3.1446,5.87589 z m 61.4094,0 -8.051,0 -2.4806,-6.39593 -2.4807,-6.39594 3.6087,-5.68527 3.6086,-5.68528 6.2267,-0.92887 6.2266,-0.92887 4.1075,3.40892 4.1075,3.40891 0,6.19 0,6.19 -3.4112,3.41117 -3.4111,3.41116 z m 66.5093,0 -7.8594,0 -3.4112,-3.41116 -3.4111,-3.41117 0,-5.96954 0,-5.96953 3.4111,-3.41117 3.4112,-3.41116 6.4725,0 6.4726,0 4.5315,6.91597 4.5315,6.91597 -3.1447,5.8759 -3.1447,5.87589 z m -354.6409,-31.26901 -6.9645,0 -3.3386,-7.32735 -3.3385,-7.32735 2.9755,-4.75386 2.9756,-4.75386 8.101,-0.95452 8.101,-0.95452 3.6935,5.05113 c 2.0314,2.77812 3.6935,6.63405 3.6935,8.56873 0,1.93468 -2.0101,5.52775 -4.467,7.9846 l -4.467,4.467 z m 65.4242,0 -6.19,0 -3.4089,-4.10749 -3.4089,-4.10749 0.9288,-6.22664 0.9289,-6.22663 5.8171,-3.84146 5.8171,-3.84146 6.2641,4.38754 6.2641,4.38755 0,6.37687 0,6.37688 -3.4111,3.41117 -3.4112,3.41116 z m 62.4945,0 -6.9645,0 -3.3386,-7.32735 -3.3385,-7.32735 2.9755,-4.75386 2.9756,-4.75386 8.101,-0.95452 8.101,-0.95452 3.6935,5.05113 c 2.0314,2.77812 3.6935,6.63405 3.6935,8.56873 0,1.93468 -2.0102,5.52775 -4.467,7.9846 l -4.467,4.467 z m 65.4242,0 -6.19,0 -3.4089,-4.10749 -3.409,-4.10749 0.9289,-6.22664 0.9289,-6.22663 5.8171,-3.84146 5.8171,-3.84146 6.2641,4.38754 6.2641,4.38755 0,6.37687 0,6.37688 -3.4112,3.41117 -3.4111,3.41116 z m 65.8651,0 -6.9645,0 -4.467,-4.467 c -2.4569,-2.45685 -4.467,-5.73891 -4.467,-7.29347 0,-1.55456 1.3242,-5.30075 2.9426,-8.32487 l 2.9427,-5.4984 8.3279,0 8.3279,0 3.2351,6.04485 3.2351,6.04485 -3.0742,6.74702 -3.0741,6.74702 z m 62.0536,0 -6.19,0 -3.4089,-4.10749 -3.409,-4.10749 0.9289,-6.22664 0.9289,-6.22663 5.8171,-3.84146 5.8171,-3.84146 6.2641,4.38754 6.2641,4.38755 0,6.37687 0,6.37688 -3.4112,3.41117 -3.4111,3.41116 z m 65.8651,0 -6.9645,0 -4.467,-4.467 c -2.4569,-2.45685 -4.467,-5.73891 -4.467,-7.29347 0,-1.55456 1.3242,-5.30075 2.9426,-8.32487 l 2.9427,-5.4984 8.3279,0 8.3279,0 3.2351,6.04485 3.2351,6.04485 -3.0742,6.74702 -3.0741,6.74702 z M 14.3553,124.91444 c -2.4233,-0.0475 -6.6446,-1.39029 -9.3807,-2.98389 L 0,119.0331 l 0,-6.7623 0,-6.76229 4.467,-4.467 c 2.4569,-2.45685 5.7389,-4.467 7.2935,-4.467 1.5545,0 5.3007,1.32419 8.3248,2.94265 l 5.4985,2.94265 0,7.85937 0,7.85937 -3.4112,3.41117 c -1.8762,1.87614 -5.3939,3.37226 -7.8173,3.32472 z m 62.2584,0.0864 -5.4167,0 -4.394,-6.70605 -4.3939,-6.70605 1.8202,-4.74347 c 1.0011,-2.60891 4.3139,-6.07803 7.3617,-7.70917 l 5.5415,-2.9657 6.9159,4.53152 6.916,4.53152 0,5.4167 0,5.4167 -4.467,4.467 -4.467,4.467 z m 66.1633,-0.0864 c -2.7,-0.0475 -7.1476,-1.3903 -9.8837,-2.98389 l -4.9746,-2.89745 0,-6.52477 0,-6.52477 5.4816,-4.96074 5.4815,-4.96074 5.892,1.87005 5.892,1.87005 3.0417,5.68337 3.0416,5.68339 -4.5315,6.91597 -4.5315,6.91597 -4.9091,-0.0864 z m 61.7554,0.0864 -5.4167,0 -4.5315,-6.91597 -4.5315,-6.91597 3.0416,-5.68339 3.0417,-5.68337 5.892,-1.87005 5.892,-1.87005 5.4815,4.96074 5.4816,4.96074 0,5.04166 0,5.04166 -4.467,4.467 -4.467,4.467 z m 65.6557,0 -5.4167,0 -4.467,-4.467 -4.467,-4.467 0,-5.04166 0,-5.04166 5.4816,-4.96074 5.4815,-4.96074 5.892,1.87005 5.892,1.87005 3.0417,5.68337 3.0416,5.68339 -4.5315,6.91597 -4.5315,6.91597 z m 62.263,0 -5.4167,0 -4.5315,-6.91597 -4.5315,-6.91597 3.0416,-5.68339 3.0417,-5.68337 5.892,-1.87005 5.892,-1.87005 5.4815,4.96074 5.4816,4.96074 0,5.04166 0,5.04166 -4.467,4.467 -4.467,4.467 z m 65.6557,0 -5.4167,0 -4.467,-4.467 -4.467,-4.467 0,-5.04166 0,-5.04166 5.4815,-4.96074 5.4816,-4.96074 5.892,1.87005 5.892,1.87005 3.0417,5.68337 3.0416,5.68339 -4.5315,6.91597 -4.5315,6.91597 z M 45.7971,93.73183 c -1.3902,0 -5.4206,-2.34255 -8.9564,-5.20567 l -6.4288,-5.20567 1.8932,-7.54291 1.8931,-7.5429 7.1779,-1.80153 7.1778,-1.80152 5.5708,5.04144 5.5707,5.04144 0,3.82339 0,3.82338 -5.6853,5.68527 c -3.1269,3.12691 -6.8227,5.68528 -8.213,5.68528 z m 62.9533,0 c -1.3674,0 -4.7592,-1.66207 -7.5373,-3.69348 l -5.0512,-3.69348 0.9546,-8.10101 0.9545,-8.10102 4.7539,-2.97556 4.7538,-2.97556 7.3274,3.33856 7.3273,3.33856 0,8.48884 0,8.48884 -5.4984,2.94266 c -3.0241,1.61845 -6.6172,2.94265 -7.9846,2.94265 z m 64.9654,0 c -1.3902,0 -5.4206,-2.34255 -8.9564,-5.20567 l -6.4288,-5.20567 1.8932,-7.54291 1.8931,-7.5429 7.1779,-1.80153 7.1778,-1.80152 5.5707,5.04144 5.5708,5.04144 0,3.82339 0,3.82338 -5.6853,5.68527 c -3.1269,3.12691 -6.8227,5.68528 -8.213,5.68528 z m 63.1207,-0.0864 c -1.2754,-0.0475 -4.5575,-1.39029 -7.2935,-2.98388 l -4.9746,-2.89745 0,-7.81813 0,-7.81814 3.4111,-3.41116 3.4112,-3.41117 5.9695,0 5.9696,0 3.4111,3.41117 3.4112,3.41116 0,7.85937 0,7.85937 -5.4984,2.94266 c -3.0241,1.61845 -6.5419,2.90375 -7.8172,2.8562 z m 64.4831,0.0864 c -0.8677,0 -4.4207,-1.99132 -7.8954,-4.42515 l -6.3178,-4.42514 0,-5.08351 0,-5.08352 5.1984,-4.70452 5.1985,-4.70454 4.3102,0 4.3102,0 4.7045,5.19845 4.7046,5.19845 0,4.58959 0,4.5896 -6.3178,4.42514 c -3.4748,2.43383 -7.0277,4.42515 -7.8954,4.42515 z m 63.4355,-0.0864 c -1.2753,-0.0475 -4.5574,-1.39029 -7.2934,-2.98388 l -4.9746,-2.89745 0,-7.81813 0,-7.81814 3.4111,-3.41116 3.4112,-3.41117 5.9695,0 5.9696,0 3.4111,3.41117 3.4112,3.41116 0,7.85937 0,7.85937 -5.4984,2.94266 c -3.0241,1.61845 -6.5419,2.90375 -7.8173,2.8562 z m 64.4832,0.0864 c -0.8677,0 -4.4207,-1.99132 -7.8954,-4.42515 l -6.3178,-4.42514 0,-5.08351 0,-5.08352 5.1984,-4.70452 5.1985,-4.70454 4.3102,0 4.3102,0 4.7045,5.19845 4.7046,5.19845 0,4.58959 0,4.5896 -6.3178,4.42514 c -3.4748,2.43383 -7.0277,4.42515 -7.8954,4.42515 z M 15.6205,59.03767 7.0786,59.87647 3.5393,56.33716 0,52.79785 l 0,-5.96954 0,-5.96954 3.4112,-3.41116 3.4111,-3.41117 6.1901,0 6.1899,0 3.3961,4.09206 3.3962,4.09206 -0.9161,7.98915 -0.9161,7.98915 z m 60.8827,0.58251 -8.0799,0 -3.1001,-5.79265 -3.1001,-5.79265 1.7682,-5.57129 1.7683,-5.5713 7.3571,-1.84651 7.3571,-1.84652 4.5347,2.84088 4.5346,2.84088 0.9289,6.26209 0.9288,6.26209 -3.4089,4.10749 -3.4089,4.10749 z m 66.2888,0 -8.051,0 -3.4111,-3.41116 -3.4112,-3.41117 0,-6.19 0,-6.19 4.1075,-3.40891 4.1075,-3.40892 6.2266,0.92887 6.2266,0.92887 3.6087,5.68528 3.6087,5.68527 -2.4807,6.39594 -2.4806,6.39593 z m 61.4094,0 -7.8594,0 -3.1447,-5.8759 -3.1446,-5.87589 4.5315,-6.91597 4.5315,-6.91598 6.4725,0 6.4726,0 3.4111,3.41117 3.4112,3.41116 0,5.96954 0,5.96954 -3.4112,3.41117 -3.4111,3.41116 z m 66.3177,0 -7.8594,0 -3.4111,-3.41116 -3.4112,-3.41117 0,-5.96954 0,-5.96954 3.4112,-3.41116 3.4111,-3.41117 6.4726,0 6.4725,0 4.5315,6.91598 4.5315,6.91597 -3.1447,5.87589 -3.1446,5.8759 z m 61.4094,0 -8.051,0 -2.4806,-6.39593 -2.4807,-6.39594 3.6087,-5.68527 3.6086,-5.68528 6.2267,-0.92887 6.2266,-0.92887 4.1075,3.40892 4.1075,3.40891 0,6.19 0,6.19 -3.4112,3.41117 -3.4111,3.41116 z m 66.5093,0 -7.8594,0 -3.4112,-3.41116 -3.4111,-3.41117 0,-5.96954 0,-5.96954 3.4111,-3.41116 3.4112,-3.41117 6.4725,0 6.4726,0 4.5315,6.91598 4.5315,6.91597 -3.1447,5.87589 -3.1447,5.8759 z M 43.7969,28.35117 l -6.9645,0 -3.3386,-7.32735 -3.3385,-7.32735 2.9755,-4.75386 2.9756,-4.75386 8.101,-0.95452 8.101,-0.95452 3.6935,5.05113 c 2.0314,2.77812 3.6935,6.63405 3.6935,8.56873 0,1.93468 -2.0101,5.52775 -4.467,7.9846 l -4.467,4.467 z m 65.4242,0 -6.19,0 -3.4089,-4.10749 -3.4089,-4.10749 0.9288,-6.22664 L 98.071,7.68291 103.8881,3.84146 109.7052,0 l 6.2641,4.38754 6.2641,4.38754 0,6.37688 0,6.37688 -3.4111,3.41116 -3.4112,3.41117 z m 62.4945,0 -6.9645,0 -3.3386,-7.32735 -3.3385,-7.32735 2.9755,-4.75386 2.9756,-4.75386 8.101,-0.95452 8.101,-0.95452 3.6935,5.05113 c 2.0314,2.77812 3.6935,6.63405 3.6935,8.56873 0,1.93468 -2.0102,5.52775 -4.467,7.9846 l -4.467,4.467 z m 65.4242,0 -6.19,0 -3.4089,-4.10749 -3.409,-4.10749 0.9289,-6.22664 0.9289,-6.22664 5.8171,-3.84145 L 237.6239,0 l 6.2641,4.38754 6.2641,4.38754 0,6.37688 0,6.37688 -3.4112,3.41116 -3.4111,3.41117 z m 65.8651,0 -6.9645,0 -4.467,-4.467 c -2.4569,-2.45685 -4.467,-5.73892 -4.467,-7.29348 0,-1.55455 1.3242,-5.30074 2.9426,-8.32486 l 2.9427,-5.4984 8.3279,0 8.3279,0 3.2351,6.04485 3.2351,6.04485 -3.0742,6.74702 -3.0741,6.74702 z m 62.0536,0 -6.19,0 -3.4089,-4.10749 -3.409,-4.10749 0.9289,-6.22664 0.9289,-6.22664 5.8171,-3.84145 L 365.5426,0 l 6.2641,4.38754 6.2641,4.38754 0,6.37688 0,6.37688 -3.4112,3.41116 -3.4111,3.41117 z m 65.8651,0 -6.9645,0 -4.467,-4.467 c -2.4569,-2.45685 -4.467,-5.73892 -4.467,-7.29348 0,-1.55455 1.3242,-5.30074 2.9426,-8.32486 l 2.9427,-5.4984 8.3279,0 8.3279,0 3.2351,6.04485 3.2351,6.04485 -3.0742,6.74702 -3.0741,6.74702 z"
         style="fill:#0b0b0b" />
    </pattern>
    <pattern
       patternUnits="userSpaceOnUse"
       width="59.991333"
       height="29.994049"
       patternTransform="translate(1714.5917,511.53903)"
       id="pattern3164">
      <rect
         y="0"
         x="0"
         height="15"
         width="15"
         id="rect3079-0"
         style="fill:#00ffff;fill-opacity:1;stroke-width:0;stroke-miterlimit:4;stroke-dasharray:none" />
      <rect
         y="14.994049"
         x="15.000366"
         height="15"
         width="15"
         id="rect3079-1-9"
         style="fill:#00ffff;fill-opacity:1;stroke-width:0;stroke-miterlimit:4;stroke-dasharray:none" />
      <rect
         y="0"
         x="29.990967"
         height="15"
         width="15"
         id="rect3079-7-4"
         style="fill:#00ffff;fill-opacity:1;stroke-width:0;stroke-miterlimit:4;stroke-dasharray:none" />
      <rect
         y="14.994049"
         x="44.991333"
         height="15"
         width="15"
         id="rect3079-1-4-8"
         style="fill:#00ffff;fill-opacity:1;stroke-width:0;stroke-miterlimit:4;stroke-dasharray:none" />
    </pattern>
    <pattern
       patternUnits="userSpaceOnUse"
       width="59.991333"
       height="29.99408"
       patternTransform="translate(1687.647,618.19934)"
       id="pattern4710">
      <rect
         ry="7.5"
         y="0"
         x="0"
         height="15"
         width="15"
         id="rect3079-8-1"
         style="fill:#00ff00;fill-opacity:1;stroke-width:0;stroke-miterlimit:4;stroke-dasharray:none" />
      <rect
         ry="7.5"
         y="14.99408"
         x="15.000366"
         height="15"
         width="15"
         id="rect3079-1-2-7"
         style="fill:#00ff00;fill-opacity:1;stroke-width:0;stroke-miterlimit:4;stroke-dasharray:none" />
      <rect
         ry="7.5"
         y="0"
         x="29.990967"
         height="15"
         width="15"
         id="rect3079-7-45-1"
         style="fill:#00ff00;fill-opacity:1;stroke-width:0;stroke-miterlimit:4;stroke-dasharray:none" />
      <rect
         ry="7.5"
         y="14.99408"
         x="44.991333"
         height="15"
         width="15"
         id="rect3079-1-4-5-1"
         style="fill:#00ff00;fill-opacity:1;stroke-width:0;stroke-miterlimit:4;stroke-dasharray:none" />
    </pattern>
    <pattern
       patternUnits="userSpaceOnUse"
       width="59.991333"
       height="29.99408"
       patternTransform="translate(1468.6134,230.97017)"
       id="pattern4745">
      <rect
         ry="7.5"
         y="0"
         x="0"
         height="15"
         width="15"
         id="rect3079-8-5"
         style="fill:#3b75c4;fill-opacity:1;stroke-width:0;stroke-miterlimit:4;stroke-dasharray:none" />
      <rect
         ry="7.5"
         y="14.99408"
         x="15.000366"
         height="15"
         width="15"
         id="rect3079-1-2-2"
         style="fill:#3b75c4;fill-opacity:1;stroke-width:0;stroke-miterlimit:4;stroke-dasharray:none" />
      <rect
         ry="7.5"
         y="0"
         x="29.990967"
         height="15"
         width="15"
         id="rect3079-7-45-7"
         style="fill:#3b75c4;fill-opacity:1;stroke-width:0;stroke-miterlimit:4;stroke-dasharray:none" />
      <rect
         ry="7.5"
         y="14.99408"
         x="44.991333"
         height="15"
         width="15"
         id="rect3079-1-4-5-6"
         style="fill:#3b75c4;fill-opacity:1;stroke-width:0;stroke-miterlimit:4;stroke-dasharray:none" />
    </pattern>
  </defs>
  <sodipodi:namedview
     pagecolor="#ffffff"
     bordercolor="#666666"
     borderopacity="1"
     objecttolerance="10"
     gridtolerance="10"
     guidetolerance="10"
     inkscape:pageopacity="0"
     inkscape:pageshadow="2"
     inkscape:window-width="1280"
     inkscape:window-height="977"
     id="namedview2987"
     showgrid="false"
     inkscape:zoom="1.1814265"
     inkscape:cx="495.03217"
     inkscape:cy="306.83246"
     inkscape:window-x="-4"
     inkscape:window-y="-4"
     inkscape:window-maximized="1"
     inkscape:current-layer="svg2985"
     showguides="false"
     inkscape:guide-bbox="true"
     inkscape:snap-bbox="true"
     inkscape:snap-nodes="true"
     inkscape:bbox-nodes="true"
     inkscape:snap-object-midpoints="true"
     inkscape:snap-bbox-midpoints="false"
     units="mm"
     inkscape:snap-grids="true"
     inkscape:snap-to-guides="true"
     fit-margin-top="2"
     fit-margin-left="0"
     fit-margin-right="0"
     fit-margin-bottom="0"
     inkscape:document-units="mm"
     width="1364.35mm">
    <sodipodi:guide
       orientation="1,0"
       position="114.57332,283.57335"
       id="guide4913" />
    <sodipodi:guide
       orientation="0,1"
       position="-690.58938,721.26452"
       id="guide3081" />
    <sodipodi:guide
       orientation="1,0"
       position="-20.69728,623.27747"
       id="guide3083" />
    <sodipodi:guide
       orientation="0,1"
       position="-1044.85,685.46147"
       id="guide3085" />
    <sodipodi:guide
       orientation="1,0"
       position="-56.37298,685.23407"
       id="guide3087" />
    <sodipodi:guide
       orientation="0,1"
       position="-153.03228,-542.7907"
       id="guide3097" />
    <sodipodi:guide
       orientation="1,0"
       position="-246.71328,-299.20778"
       id="guide3099" />
    <sodipodi:guide
       orientation="0,1"
       position="-1044.2629,476.37045"
       id="guide3101" />
    <sodipodi:guide
       orientation="1,0"
       position="-1922.1172,-412.64782"
       id="guide3125" />
    <sodipodi:guide
       orientation="0,1"
       position="-525.70448,530.24525"
       id="guide3127" />
    <sodipodi:guide
       orientation="0,1"
       position="-1202.5101,-1177.6149"
       id="guide3129" />
    <sodipodi:guide
       orientation="1,0"
       position="-1145.0303,-1179.8745"
       id="guide3131" />
    <sodipodi:guide
       orientation="1,0"
       position="-1170.3933,-1153.9435"
       id="guide3135" />
    <sodipodi:guide
       orientation="0,1"
       position="-1169.445,-1152.7744"
       id="guide3137" />
    <sodipodi:guide
       orientation="1,0"
       position="-795.32658,510.45125"
       id="guide3161" />
    <sodipodi:guide
       orientation="1,0"
       position="-1164.6528,686.04047"
       id="guide4649" />
    <sodipodi:guide
       orientation="1,0"
       position="-955.49363,477.15165"
       id="guide4651" />
    <inkscape:grid
       type="xygrid"
       id="grid3247"
       empspacing="5"
       visible="true"
       enabled="true"
       snapvisiblegridlinesonly="true"
       originx="-2143.4354px"
       originy="-1395.8206px" />
  </sodipodi:namedview>
  <path
     style="fill:#1761ab;fill-opacity:1;stroke:none"
     d="M 27.68237,483.6529 C 241.48554,274.92873 241.48554,274.92873 241.48554,274.92873 l -10.71882,-11.03356 151.36059,0.18235 -0.0229,-31.97067 -226.9757,0 42.8358,42.82188 L 5.16473,460.15588 z"
     id="path3035"
     inkscape:connector-curvature="0"
     sodipodi:nodetypes="ccccccccc" />
  <path
     inkscape:connector-curvature="0"
     id="path2999"
     d="m 471.49166,483.16178 c -0.83466,-0.23931 -2.0307,-1.46928 -2.27318,-2.33764 -0.2648,-0.94807 -0.26916,-15.16446 -0.005,-16.11023 0.22892,-0.81961 0.9554,-1.72928 1.67757,-2.10063 0.28483,-0.14643 2.10735,-0.52132 4.05003,-0.83302 11.33204,-1.81832 13.68872,-2.56072 16.26388,-5.12318 1.94176,-1.93214 2.73715,-3.84655 3.41724,-8.22466 0.28867,-1.85856 0.31805,-8.89112 0.37596,-90.16868 0.0414,-57.80821 -0.005,-89.53075 -0.12712,-92.15563 -0.36096,-7.60426 -1.24791,-10.16648 -4.39148,-12.68621 -1.18262,-0.94794 -4.60242,-2.753 -6.95112,-3.66895 -1.51532,-0.59097 -7.14905,-2.22457 -10.36364,-3.00507 -1.93696,-0.47034 -3.01292,-1.1266 -3.66987,-2.23859 -0.36665,-0.62067 -0.38569,-0.9782 -0.43801,-8.23291 -0.0379,-5.25046 0.0113,-7.82832 0.15872,-8.3778 0.27437,-1.02048 1.56144,-2.2814 2.61724,-2.56405 0.55383,-0.14832 15.27326,-0.18432 52.9457,-0.12952 54.03725,0.0786 53.63155,0.0734 60.136,0.7895 9.23866,1.01733 17.50778,2.8894 23.59117,5.34095 11.91232,4.80054 19.84979,11.74744 25.53587,22.34904 4.42323,8.24705 6.66199,18.67206 6.66602,31.04092 0.006,14.17904 -2.90813,25.08914 -9.26455,34.70102 -6.29453,9.51849 -16.00601,17.27087 -28.74144,22.94334 -3.53894,1.5763 -3.65229,1.63406 -3.64742,1.85819 0.006,0.0912 0.76032,0.38518 1.68505,0.65327 13.90816,4.03166 26.38823,11.64579 34.1058,20.80797 3.53728,4.19933 7.06711,9.85239 9.42948,15.10145 4.66867,10.37324 6.4583,21.48692 5.82688,36.18431 -0.4482,10.43268 -1.55175,17.00593 -4.1145,24.50807 -2.84755,8.33613 -7.88324,16.49878 -13.4433,21.79123 -5.55245,5.28517 -13.47789,10.19751 -21.51021,13.33243 -9.02695,3.52312 -20.85722,5.73394 -35.15911,6.57049 -4.33241,0.25339 -103.49632,0.2388 -104.38274,-0.0154 z m 102.7645,-7.43045 c 20.61465,-1.15743 34.16819,-4.83047 45.68729,-12.38139 5.09555,-3.34024 8.48128,-6.54848 12.07405,-11.4412 3.4816,-4.74143 6.96205,-12.62048 8.3882,-18.98968 3.01126,-13.44791 3.01779,-28.05542 0.0179,-39.84101 -1.49297,-5.86547 -4.7523,-12.93041 -8.44049,-18.29572 -5.09273,-7.40847 -11.73261,-13.00489 -20.6688,-17.42079 -6.8608,-3.39029 -13.38483,-5.64715 -19.75302,-6.83315 -2.91232,-0.54239 -3.60615,-0.8604 -4.3657,-2.00113 -0.46969,-0.70534 -0.50649,-0.91296 -0.56659,-3.19731 -0.082,-3.11349 0.10074,-3.83193 1.25683,-4.94579 0.75079,-0.72336 1.21235,-0.96038 3.21229,-1.64938 4.7783,-1.6463 9.48435,-3.72789 13.9911,-6.18868 7.35872,-4.0181 12.34439,-8.03276 17.30816,-13.93722 2.34509,-2.78954 5.19124,-7.69368 6.86087,-11.82196 4.35225,-10.76158 5.10592,-25.2735 1.99942,-38.50354 -1.04,-4.42933 -3.58918,-10.46917 -5.95923,-14.11953 -4.56346,-7.02869 -11.16634,-12.32556 -19.41389,-15.5741 -7.96262,-3.13631 -14.98304,-4.54476 -28.17843,-5.6533 -1.65626,-0.13914 -18.16339,-0.22945 -51.65824,-0.28275 -40.40282,-0.0642 -49.25212,-0.0348 -49.37961,0.1652 -0.26435,0.41448 -0.19805,6.59223 0.073,6.80198 0.12872,0.0996 2.08143,0.70287 4.33946,1.34058 8.70037,2.45736 13.48495,5.01863 17.08631,9.14665 2.19684,2.51819 3.45799,5.81678 4.0278,10.53487 0.36142,2.9932 0.36024,186.11366 0,189.10886 -0.30152,2.49794 -1.1777,5.95747 -1.89845,7.49588 -2.13662,4.56054 -6.41408,8.06846 -11.6823,9.58054 -1.84899,0.53075 -7.09027,1.59893 -10.02173,2.04248 -0.8619,0.13045 -1.68341,0.35276 -1.82549,0.49408 -0.3457,0.34376 -0.37581,5.99664 -0.0338,6.33681 0.29743,0.29574 92.28612,0.32379 97.52414,0.0297 z m -13.12,-8.67968 c -5.9881,-0.41375 -11.27988,-2.67218 -15.41511,-6.57895 -3.33408,-3.14992 -5.27558,-6.25704 -6.21203,-9.94185 l -0.46848,-1.84336 0.048,-46.94759 0.0474,-46.94757 0.50259,-0.7551 c 0.84077,-1.26333 1.55123,-1.47869 5.95699,-1.80568 10.79501,-0.8013 16.51021,-0.50851 23.09383,1.18297 13.45286,3.45637 23.81875,13.82953 28.56966,28.58999 2.72679,8.47155 3.75597,16.17584 3.75495,28.10839 0,13.39179 -1.81248,24.4353 -5.44,33.16869 -1.37396,3.30808 -1.52832,3.61375 -3.38016,6.69537 -3.51117,5.8429 -7.96397,10.41695 -12.99015,13.34395 -5.05209,2.94211 -11.17709,4.2068 -18.06784,3.73074 z m 4.84992,-7.51478 c 5.80518,-0.51087 10.27059,-2.6944 14.54329,-7.11137 7.51322,-7.76714 11.43111,-18.66263 12.73786,-35.4242 0.47641,-6.11142 0.19737,-14.86216 -0.66791,-20.94447 -1.48851,-10.46253 -5.44512,-20.04886 -10.6158,-25.72059 -4.7074,-5.16358 -9.68109,-8.14027 -16.44736,-9.8435 -3.26202,-0.82117 -6.41856,-1.16176 -10.67226,-1.1516 -3.69958,0.009 -7.73805,0.25523 -8.12992,0.49603 -0.14342,0.0882 -0.20186,12.69186 -0.20186,43.52606 0,48.41618 -0.11392,44.33283 1.32052,47.34446 0.54336,1.14073 1.1008,1.90735 2.33497,3.21101 3.20935,3.38995 6.95347,5.18692 11.69754,5.61408 0.87533,0.0788 1.67571,0.15426 1.77875,0.16763 0.10291,0.0133 1.1479,-0.0602 2.32218,-0.16354 z M 540.94665,342.03955 c -0.47481,-0.23367 -1.01817,-0.7104 -1.31065,-1.14982 l -0.49959,-0.75067 0,-47.87364 0,-47.87368 0.50259,-0.75506 c 0.86221,-1.29553 1.52743,-1.48971 6.23776,-1.82063 11.4242,-0.80253 16.62445,-0.50328 22.20109,1.27766 4.85754,1.55124 8.23821,3.64921 12.16954,7.552 4.69369,4.65961 8.08173,11.25594 10.18899,19.83747 1.4759,6.0101 2.05594,12.21693 1.90528,20.38595 -0.14522,7.8712 -0.6281,12.12178 -2.10272,18.50847 -1.32506,5.73915 -3.68979,11.53331 -6.54074,16.02659 -3.77766,5.95386 -8.44672,10.17483 -14.4174,13.03375 -6.25837,2.99664 -12.0617,3.98361 -23.4976,3.99631 -3.74381,0.004 -4.08231,-0.0234 -4.83655,-0.3947 z m 14.38535,-7.53717 c 6.70393,-0.799 12.60441,-3.323 16.73459,-7.15832 5.69139,-5.285 9.89773,-14.1412 11.54195,-24.30072 2.03411,-12.56927 1.18541,-26.33965 -2.1961,-35.63048 -0.93388,-2.56595 -2.4846,-5.76918 -3.69606,-7.63462 -4.32678,-6.66297 -11.24595,-10.42018 -20.04397,-10.88414 -2.6519,-0.1398 -10.23853,0.17777 -10.75014,0.45007 l -0.39015,0.20763 0,42.59606 c 0,23.42781 0.0627,42.65844 0.13952,42.73472 0.19994,0.19894 5.90132,-0.0514 8.66036,-0.3802 z m 108.33936,148.59684 c -0.39769,-0.14101 -0.96262,-0.48436 -1.25516,-0.76309 -1.11988,-1.06685 -1.11085,-0.98939 -1.11085,-9.59196 0,-7.53859 0.016,-7.90513 0.38125,-8.65521 0.22681,-0.46592 0.69593,-0.99026 1.15782,-1.29423 0.73101,-0.48097 1.10118,-0.54667 6.31226,-1.12026 6.86105,-0.75525 8.13492,-0.93076 10.07044,-1.38752 2.05496,-0.48497 2.68336,-0.76518 4.16616,-1.85825 2.23488,-1.64741 3.46224,-4.01183 4.25808,-8.2028 0.31832,-1.67629 0.33448,-6.23227 0.33448,-94.28936 0,-88.47588 -0.0152,-92.60129 -0.33816,-94.20348 -0.18608,-0.92156 -0.51152,-2.26202 -0.72344,-2.97878 -1.27584,-4.31653 -3.79984,-6.49183 -10.25152,-8.8354 -2.96635,-1.0775 -8.50228,-2.67911 -10.9675,-3.17305 -1.13274,-0.22696 -2.27021,-0.5217 -2.52762,-0.65499 -0.64435,-0.33362 -1.43404,-1.19435 -1.67321,-1.82362 -0.31834,-0.83796 -0.2697,-16.16863 0.0538,-16.93852 0.33433,-0.79573 1.43629,-1.73826 2.31629,-1.98128 1.09568,-0.30252 99.26932,-0.27275 100.287,0.0303 1.02408,0.30512 2.08048,1.41321 2.34568,2.46064 0.2844,1.12304 0.28624,14.99524 0,16.01286 -0.27184,0.97362 -0.97224,1.8597 -1.76608,2.23425 -0.35432,0.1672 -2.73032,0.63573 -5.27992,1.04115 -7.82144,1.24375 -10.40936,1.86852 -13.41888,3.23941 -4.06248,1.85057 -5.58016,5.12455 -6.09168,13.14107 -0.26064,4.08518 -0.27104,176.62312 -0.0112,180.87558 0.56608,9.25267 2.90784,12.63857 10.39224,15.02547 2.83464,0.90398 8.07032,2.08189 11.32744,2.54833 3.0784,0.44083 3.87,0.81264 4.57056,2.14645 0.3788,0.7212 0.39112,0.99399 0.39112,8.657 l 0,7.91239 -0.51208,0.86631 c -0.38032,0.64317 -0.76352,0.99082 -1.48792,1.34973 l -0.9756,0.48344 -49.62648,-0.008 c -41.65249,-0.007 -49.74273,-0.0491 -50.34977,-0.26451 z m 95.27544,-10.51832 0,-3.25105 -0.65536,-0.13881 c -10.62632,-2.25142 -13.86672,-3.30138 -17.31888,-5.61142 -1.47328,-0.98585 -3.86128,-3.28714 -4.86608,-4.6894 -2.24176,-3.12852 -3.4688,-7.35396 -3.83848,-13.21831 -0.26264,-4.16834 -0.25672,-179.30005 0.008,-183.47343 0.32312,-5.12504 1.4624,-9.75835 3.04416,-12.37999 1.55184,-2.57184 4.50056,-5.15871 7.30176,-6.40566 2.93872,-1.30817 6.7844,-2.31657 12.39768,-3.25091 2.00984,-0.33452 3.7392,-0.69267 3.84296,-0.7959 0.1164,-0.11575 0.16904,-1.43015 0.13728,-3.43178 l -0.0512,-3.2442 -45.02936,0 -45.02923,0 -0.0512,3.33738 c -0.0282,1.83558 0.0186,3.40668 0.10362,3.49139 0.0851,0.0847 1.54054,0.52297 3.23417,0.97394 4.05044,1.07856 6.26832,1.79749 9.28656,3.01019 4.13272,1.66044 6.15656,2.91964 8.49048,5.28257 2.7224,2.75633 3.97792,5.32804 5.09376,10.4342 l 0.4272,1.95482 0.0504,93.83117 c 0.044,82.35006 0.016,94.09313 -0.2292,95.97212 -0.8568,6.55826 -2.9504,10.42068 -7.49536,13.82764 -3.24624,2.43343 -6.59984,3.30296 -16.38278,4.2476 -1.28723,0.12432 -2.4023,0.31805 -2.47802,0.43059 -0.17203,0.2559 -0.18886,6.14774 -0.0179,6.31767 0.069,0.0685 20.35312,0.10338 45.07616,0.0775 l 44.95088,-0.0471 0,-3.25105 z m 18.63832,10.54883 c -0.8728,-0.27771 -1.9996,-1.43616 -2.2424,-2.30559 -0.12416,-0.44488 -0.19824,-3.45789 -0.19824,-8.06404 0,-4.60616 0.0744,-7.61918 0.19824,-8.06406 0.2568,-0.9193 1.452,-2.10345 2.36416,-2.34214 0.3916,-0.10251 2.692,-0.40479 5.11192,-0.67169 8.17976,-0.9024 9.98856,-1.24919 12.17016,-2.33344 2.65112,-1.31754 4.37552,-3.61114 5.24392,-6.97463 0.98016,-3.79637 0.93464,0.90732 0.93464,-96.53065 0,-78.31958 -0.0368,-90.69986 -0.27504,-92.71526 -0.64304,-5.43805 -1.79664,-7.7683 -5.06936,-10.24008 -3.32416,-2.51056 -8.69336,-4.54229 -16,-6.0545 -2.60504,-0.53912 -3.44496,-0.96006 -4.14288,-2.07639 l -0.44432,-0.71065 0,-8.19163 0,-8.19159 0.44432,-0.7107 c 0.2444,-0.39084 0.78592,-0.93541 1.20336,-1.21012 l 0.75896,-0.49943 49.63024,0 c 49.29344,0 49.63444,0.004 50.26554,0.37232 0.3495,0.2048 0.8972,0.69424 1.217,1.08762 l 0.5815,0.7152 0.056,7.94182 c 0.03,4.36801 0.01,8.21719 -0.057,8.55376 -0.1591,0.86696 -1.4892,2.18984 -2.433,2.41979 -0.4119,0.1004 -2.43408,0.45061 -4.4936,0.77832 -5.10824,0.81281 -8.09424,1.42471 -10.20416,2.09105 -5.34552,1.68821 -7.1048,3.41971 -8.322,8.19098 -1.08584,4.2566 -1.0568,2.89636 -0.99896,46.77099 0.04,29.71923 0.10824,40.21613 0.26496,40.26807 0.18816,0.0624 8.31216,-10.54458 13.86144,-18.09798 1.1284,-1.53595 3.31024,-4.49802 4.84856,-6.58239 15.65116,-21.2072 25.77796,-36.76312 35.22516,-54.11 2.4614,-4.51969 4.2068,-9.02534 4.9268,-12.71841 0.512,-2.62632 0.4933,-3.089 -0.1427,-3.53575 -1.5898,-1.11686 -6.0543,-2.08482 -12.5609,-2.72347 -3.0237,-0.29676 -3.7243,-0.59064 -4.5477,-1.9078 l -0.4443,-0.71065 0,-8.19163 0,-8.19159 0.4443,-0.7107 c 0.2443,-0.39084 0.7858,-0.93541 1.2033,-1.21012 l 0.759,-0.49943 39.6269,0 39.6269,0 0.759,0.49943 c 0.4174,0.27471 0.959,0.81928 1.2033,1.21012 l 0.4444,0.7107 0,8.20519 0,8.20523 -0.5023,0.75469 c -0.7751,1.16465 -1.4504,1.46878 -4.4634,2.01023 -8.0452,1.44569 -13.2486,3.06512 -19.0001,5.91314 -7.1913,3.56115 -12.9596,8.87424 -21.043,19.38277 -9.9444,12.92776 -14.7369,19.44166 -22.2073,30.18412 -1.4242,2.04792 -3.3227,4.7707 -4.2191,6.05062 -0.8963,1.27996 -2.4698,3.54192 -3.4967,5.02668 -1.0268,1.48472 -2.9968,4.32068 -4.3777,6.30207 -5.2053,7.46865 -5.7752,8.32094 -5.7813,8.64559 -0.01,0.18322 0.6385,1.43986 1.4262,2.79262 1.4262,2.44924 4.4219,7.69154 7.7356,13.53678 0.9578,1.68952 2.1832,3.82582 2.7233,4.74739 0.5401,0.92156 2.3089,4.06323 3.9309,6.98151 1.6218,2.91824 3.225,5.76668 3.5627,6.32988 0.3375,0.56316 2.378,4.16559 4.5341,8.00542 2.1562,3.8398 4.4933,7.98683 5.1938,9.21555 0.7003,1.22876 2.6416,4.66363 4.3142,7.63311 5.8028,10.3027 11.097,19.59042 15.7594,27.64667 2.5776,4.4542 6.1384,10.61183 7.9125,13.68371 5.9487,10.29977 7.8245,13.15578 12.3494,18.80345 4.4705,5.57988 10.316,10.40594 14.8787,12.28396 1.9071,0.785 5.3615,1.68617 7.604,1.98364 2.3486,0.3116 2.9325,0.48926 3.6414,1.10817 1.2312,1.07495 1.2488,1.22194 1.1877,9.94458 l -0.054,7.81844 -0.4443,0.71071 c -0.2443,0.39081 -0.7858,0.93537 -1.2034,1.21011 l -0.7589,0.4994 -35.8415,0.0486 c -25.046,0.0338 -36.066,-0.0118 -36.5867,-0.15108 -1.474,-0.39465 -2.0175,-1.22844 -4.9689,-7.62353 -4.684,-10.14923 -8.3806,-17.97893 -8.6577,-18.33805 -0.079,-0.1024 -0.7549,-1.4847 -1.502,-3.07185 -1.7799,-3.78117 -8.9412,-18.01772 -10.6767,-21.22525 -0.7476,-1.38151 -2.4312,-4.52248 -3.7414,-6.97996 -1.3103,-2.45748 -2.9931,-5.55724 -3.7397,-6.8884 -0.7465,-1.33112 -2.5805,-4.64036 -4.0756,-7.35383 -4.21158,-7.64354 -7.93758,-14.3197 -16.98822,-30.43926 -6.93696,-12.35513 -7.4904,-13.30959 -7.68152,-13.24777 -0.12376,0.0402 -0.2048,12.95634 -0.2392,38.11738 -0.0456,33.28748 -0.016,38.3386 0.23488,40.3053 0.58928,4.61972 1.45904,6.95582 3.3304,8.94484 1.32224,1.40554 2.28416,2.1034 4.14648,3.00821 2.97992,1.44778 6.24736,2.47086 11.15704,3.49358 2.70448,0.56335 3.36608,0.90471 4.07392,2.10196 l 0.51332,0.86815 0.057,7.41181 c 0.047,6.20729 0.011,7.56875 -0.22812,8.37776 -0.31064,1.05339 -0.91048,1.80475 -1.84736,2.31403 -0.57016,0.30992 -3.16576,0.32907 -48.34672,0.3558 -34.40288,0.0205 -47.9248,-0.0292 -48.39064,-0.17741 z m 91.13064,-10.60439 c 0.0504,-3.28857 0.0488,-3.30747 -0.37448,-3.46998 -0.234,-0.0898 -1.73152,-0.51619 -3.3276,-0.94746 -6.62984,-1.79123 -10.848,-3.90451 -13.88888,-6.95808 -1.31424,-1.31977 -3.11816,-3.86324 -3.70448,-5.22336 -0.5984,-1.38804 -1.64896,-5.98165 -1.87688,-8.20665 -0.15,-1.46452 -0.19352,-13.87743 -0.15256,-43.57805 l 0.0568,-41.53017 0.50248,-0.75509 c 0.30712,-0.46142 0.82928,-0.91234 1.34264,-1.15946 0.80192,-0.386 1.04352,-0.40186 5.30168,-0.34837 4.39624,0.0552 4.47152,0.0628 5.14816,0.51791 1.04792,0.70492 0.008,-1.07804 14.00264,23.92678 2.2928,4.09583 4.23304,7.5307 4.31152,7.6331 0.0784,0.1024 1.68124,2.99274 3.56184,6.42298 1.8806,3.43024 3.991,7.24214 4.6895,8.47086 9.5367,16.77228 20.9552,39.07384 30.5027,59.57535 1.6213,3.48139 3.2366,6.91629 3.5895,7.63309 l 0.6416,1.3032 31.5226,0.0471 c 23.1432,0.0343 31.5902,-0.009 31.7766,-0.1624 0.1942,-0.16016 0.2533,-0.89452 0.2511,-3.11891 -0.01,-1.6002 -0.067,-3.00953 -0.1452,-3.1319 -0.078,-0.12237 -1.0669,-0.43879 -2.1971,-0.70318 -6.1399,-1.43647 -10.0035,-3.37229 -15.2547,-7.64329 -2.1635,-1.75969 -6.4273,-6.07975 -8.2639,-8.37284 -5.3887,-6.72829 -6.8815,-9.08288 -18.2369,-28.7637 -9.2836,-16.09043 -13.7783,-23.9563 -17.4995,-30.62546 -1.2569,-2.25267 -2.5629,-4.55655 -2.9022,-5.11975 -0.3394,-0.56316 -2.4069,-4.20749 -4.5947,-8.09853 -13.3165,-23.68356 -17.8811,-31.76219 -20.6708,-36.58297 -3.2964,-5.69675 -6.2676,-10.93649 -7.1546,-12.61777 -0.7168,-1.35877 -0.8126,-1.68342 -0.8126,-2.75202 0,-0.66638 0.126,-1.51164 0.2801,-1.87839 0.1542,-0.36679 1.1087,-1.85114 2.1212,-3.29862 1.0126,-1.44746 3.0071,-4.30728 4.4322,-6.3552 1.4252,-2.04787 3.701,-5.31521 5.0577,-7.26073 2.5988,-3.72695 3.6665,-5.26598 5.5544,-8.00542 7.6428,-11.09104 17.8845,-25.1272 24.1027,-33.0322 7.5452,-9.59218 10.4221,-12.66741 16.1237,-17.23458 6.4712,-5.18381 14.9166,-8.77895 26.2078,-11.15643 l 1.966,-0.41395 0,-3.43036 0,-3.43036 -34.357,0 -34.3572,0 -0.051,3.15102 c -0.028,1.73302 0.015,3.21704 0.096,3.29777 0.081,0.0807 1.3293,0.31228 2.7736,0.51453 8.535,1.19534 12.7842,3.14778 14.5326,6.67748 0.4104,0.82873 0.4356,1.08388 0.4264,4.32492 -0.011,3.82 -0.2273,5.12048 -1.4976,8.99035 -1.1307,3.44485 -3.5501,8.60127 -6.2641,13.35042 -4.0163,7.028 -7.5528,12.91575 -11.5182,19.17579 -2.4148,3.81211 -9.1194,13.84686 -11.1329,16.66248 -6.6294,9.27032 -9.3401,13.03393 -10.9363,15.18466 -1.0405,1.40181 -2.8607,3.86953 -4.04494,5.48385 -2.13992,2.917 -15.92056,21.24074 -16.8232,22.36928 -0.25968,0.32469 -0.81448,0.78549 -1.23288,1.02396 -0.72696,0.41435 -0.92688,0.4336 -4.50536,0.4336 -3.53448,0 -3.7892,-0.0238 -4.54016,-0.42255 -0.43752,-0.2324 -1.02736,-0.77086 -1.31064,-1.19656 l -0.51504,-0.77398 0,-45.25359 c 0,-49.46235 -0.0736,-46.14746 1.12944,-50.90054 1.4816,-5.85364 3.92016,-8.83319 9.33112,-11.40147 2.57728,-1.2233 5.75984,-2.09936 10.88384,-2.99597 2.36848,-0.41443 4.49792,-0.82748 4.732,-0.91788 0.4232,-0.16343 0.4252,-0.18263 0.3744,-3.47095 l -0.0512,-3.30662 -44.4676,0 -44.4676,0 -0.0512,3.33739 c -0.028,1.83557 0.0168,3.40467 0.0991,3.48688 0.0826,0.0822 1.6644,0.56389 3.51504,1.07037 1.85064,0.50651 3.99664,1.12968 4.76896,1.38489 7.36816,2.43459 13.04816,6.8454 15.35584,11.92477 0.9112,2.0054 1.6936,5.2643 2.04784,8.52955 0.134,1.23495 0.19552,30.82122 0.19432,93.3657 -0.008,100.22013 0.0672,93.99421 -1.092,98.53938 -0.70768,2.77571 -1.26392,4.10219 -2.52984,6.03331 -2.39952,3.66044 -5.83344,6.04923 -10.31232,7.17399 -1.94952,0.48957 -5.0016,0.96113 -10.02968,1.54951 l -1.966,0.2301 -0.052,3.06472 c -0.028,1.68556 -0.01,3.17282 0.0408,3.30496 0.0752,0.19548 8.08096,0.23153 42.92768,0.19334 l 42.83512,-0.0471 0.0512,-3.3066 z"
     style="fill:#003b80;fill-opacity:1" />
  <path
     style="fill:#003b80;fill-opacity:1"
     d="m 417.39282,245.68263 c 0,-130.90377 -0.28651,-238.5927678 -0.11305,-238.5928158 13.05206,-0.0032 1.12374,-0.0032 13.05206,-0.0032 11.48134,0.01944 0,0 13.05201,0.04184 0.17351,0 -0.113,107.6502058 -0.113,238.5539958 l 0,238.00683 -12.93901,0 -12.93901,0 z"
     id="path2997-7"
     inkscape:connector-curvature="0"
     sodipodi:nodetypes="cscscccsc" />
  <path
     style="fill:#003b80;fill-opacity:1"
     d="m 153.95308,608.57754 c 189.16966,-187.77453 0,0 189.16966,-187.77453 38.98168,39.31637 0,0 38.98168,39.31637 0,-227.96596 0,0 0,-228.01253 -226.97276,0 0,0 -226.97571,0 42.83261,42.82188 0.004,0 42.8356,42.82188 -192.80105,185.22705 0,0 -192.80105,185.22705 C 0,454.93594 5.12966,460.19268 0,454.93594 c 187.54679,-180.00721 0,0 187.54679,-180.00721 -49.80789,-50.15433 0,0 -49.80789,-50.15433 0,0 0,0 251.6724,3e-5 0,253.31491 -0.15759,1.60596 0,253.31491 -46.28758,-46.93726 0,0 -46.28758,-46.93726 -183.9763,182.51282 0,0 -183.9763,182.51282 -5.19434,-5.08736 0,0 -5.19434,-5.08736 z"
     id="path2997-1"
     inkscape:connector-curvature="0"
     sodipodi:nodetypes="ccccccccccccccc" />
</svg>
